<?xml version="1.0" encoding="utf-8"?>
<!DOCTYPE svg PUBLIC "-//W3C//DTD SVG 1.1//EN" "http://www.w3.org/Graphics/SVG/1.1/DTD/svg11.dtd">
<svg version="1.1" id="Layer_1" xmlns="http://www.w3.org/2000/svg" xmlns:xlink="http://www.w3.org/1999/xlink" x="0px" y="0px"
	 width="380.855px" height="249.412px" viewBox="0 0 380.855 249.412" enable-background="new 0 0 380.855 249.412"
	 xml:space="preserve">
<rect x="-18.649" y="-17.167" fill="#1A1A1A" width="417.865" height="283.748"/>
<g opacity="0.3">
	<g>
		<path fill="#333333" d="M321.057,119.994h-23c-2.762,0-5-2.239-5-5V68.661c0-2.761,2.238-5,5-5h23
			c15.531,0,28.166,12.635,28.166,28.167S336.588,119.994,321.057,119.994z M303.057,109.994h18c10.018,0,18.166-8.15,18.166-18.167
			c0-10.017-8.148-18.167-18.166-18.167h-18V109.994z"/>
	</g>
	<g>
		<path fill="#333333" d="M109.972,106.098h-23c-2.761,0-5-2.239-5-5V54.764c0-2.761,2.239-5,5-5h23
			c15.531,0,28.167,12.635,28.167,28.167S125.503,106.098,109.972,106.098z M91.972,96.098h18c10.017,0,18.167-8.15,18.167-18.167
			c0-10.017-8.15-18.167-18.167-18.167h-18V96.098z"/>
	</g>
	<g>
		<path fill="#333333" d="M205.059,187.098h-23c-2.762,0-5-2.239-5-5v-46.334c0-2.761,2.238-5,5-5h23
			c15.531,0,28.166,12.636,28.166,28.167S220.59,187.098,205.059,187.098z M187.059,177.098h18c10.018,0,18.166-8.15,18.166-18.167
			s-8.148-18.167-18.166-18.167h-18V177.098z"/>
	</g>
	<g>
		<rect x="344.223" y="86.827" fill="#333333" width="51.238" height="10"/>
	</g>
	<g>
		<rect x="155.68" y="72.931" fill="#333333" width="142.795" height="10"/>
	</g>
	<g>
		<path fill="#333333" d="M268.477,163.931h-40.252v-10h35.252v-48.003c0-2.761,2.238-5,5-5h29.998v10h-24.998v48.003
			C273.477,161.691,271.238,163.931,268.477,163.931z"/>
	</g>
	<g>
		<path fill="#333333" d="M86.972,70.428H34.311c-2.761,0-5-2.239-5-5V-9h10v69.428h47.661V70.428z"/>
	</g>
	<g>
		<rect x="-11.62" y="86.827" fill="#333333" width="98.592" height="10"/>
	</g>
	<g>
		<path fill="#333333" d="M83.475,187.094c-1.367,0-2.716-0.558-3.687-1.615c-1.534-1.672-1.761-4.16-0.538-6.071
			c3.347-5.229,5.266-12.695,5.266-20.481c0-7.781-1.917-15.243-5.26-20.473c-0.926-1.45-1.043-3.275-0.307-4.83
			c0.735-1.557,2.219-2.624,3.928-2.828c0.197-0.022,0.406-0.036,0.604-0.036c41.724,0,53.71,25.013,54.199,26.077
			c0.61,1.326,0.61,2.853,0,4.179c-0.489,1.063-12.451,26.025-54.07,26.077C83.564,187.093,83.52,187.094,83.475,187.094z
			 M91.582,141.13c1.915,5.375,2.934,11.46,2.934,17.796s-1.019,12.42-2.934,17.795c22.7-2.152,32.533-13.098,35.755-17.799
			C124.133,154.246,114.305,143.285,91.582,141.13z"/>
	</g>
	<g>
		<path fill="#333333" d="M248.393,249.568c-1.385,0-2.748-0.573-3.721-1.652c-1.504-1.673-1.717-4.14-0.504-6.035
			c3.348-5.229,5.266-12.694,5.266-20.481c0-7.78-1.916-15.242-5.26-20.473c-0.945-1.479-1.045-3.347-0.264-4.919
			c0.783-1.572,2.332-2.619,4.084-2.758c0.131-0.01,0.273-0.017,0.406-0.017c41.723,0,53.709,25.012,54.199,26.077
			c0.609,1.326,0.609,2.852,0,4.179c-0.49,1.063-12.451,26.028-54.076,26.077C248.48,249.567,248.438,249.568,248.393,249.568z
			 M256.5,203.604c1.916,5.375,2.934,11.46,2.934,17.795c0,6.337-1.018,12.421-2.934,17.796
			c22.699-2.152,32.533-13.098,35.756-17.799C289.051,216.721,279.223,205.76,256.5,203.604z"/>
	</g>
	<g>
		<rect x="133.139" y="153.931" fill="#333333" width="48.92" height="10"/>
	</g>
	<g>
		<path fill="#333333" d="M39.311,261.75h-10V158.931c0-2.761,2.239-5,5-5h55.205v10H39.311V261.75z"/>
	</g>
	<g>
		<path fill="#333333" d="M144.408,94.201c-8.971,0-16.27-7.299-16.27-16.271s7.299-16.271,16.27-16.271
			c8.973,0,16.271,7.299,16.271,16.271S153.381,94.201,144.408,94.201z M144.408,71.66c-3.457,0-6.27,2.812-6.27,6.271
			c0,3.458,2.812,6.271,6.27,6.271s6.271-2.813,6.271-6.271C150.68,74.473,147.865,71.66,144.408,71.66z"/>
	</g>
	<g>
		<path fill="#333333" d="M311.625,237.676c-8.971,0-16.27-7.299-16.27-16.271c0-8.973,7.299-16.271,16.27-16.271
			c8.973,0,16.271,7.298,16.271,16.271C327.896,230.377,320.598,237.676,311.625,237.676z M311.625,215.135
			c-3.457,0-6.27,2.812-6.27,6.271c0,3.457,2.812,6.271,6.27,6.271s6.271-2.813,6.271-6.271
			C317.896,217.947,315.082,215.135,311.625,215.135z"/>
	</g>
	<g>
		<circle fill="#333333" cx="34.311" cy="221.405" r="12.651"/>
	</g>
	<g>
		<rect x="-13.395" y="216.405" fill="#333333" width="267.828" height="10"/>
	</g>
	<g>
		<rect x="322.896" y="216.405" fill="#333333" width="72.709" height="10"/>
	</g>
</g>
</svg>
