<?xml version="1.0" encoding="utf-8"?>
<!DOCTYPE svg PUBLIC "-//W3C//DTD SVG 1.1//EN" "http://www.w3.org/Graphics/SVG/1.1/DTD/svg11.dtd" [
        <!ENTITY ns_extend "http://ns.adobe.com/Extensibility/1.0/">
        <!ENTITY ns_ai "http://ns.adobe.com/AdobeIllustrator/10.0/">
        <!ENTITY ns_graphs "http://ns.adobe.com/Graphs/1.0/">
        <!ENTITY ns_vars "http://ns.adobe.com/Variables/1.0/">
        <!ENTITY ns_imrep "http://ns.adobe.com/ImageReplacement/1.0/">
        <!ENTITY ns_sfw "http://ns.adobe.com/SaveForWeb/1.0/">
        <!ENTITY ns_custom "http://ns.adobe.com/GenericCustomNamespace/1.0/">
        <!ENTITY ns_adobe_xpath "http://ns.adobe.com/XPath/1.0/">
        ]>
<svg version="1.1" id="Layer_1" xmlns:x="&ns_extend;" xmlns:i="&ns_ai;" xmlns:graph="&ns_graphs;"
	 xmlns="http://www.w3.org/2000/svg" xmlns:xlink="http://www.w3.org/1999/xlink" x="0px" y="0px" width="182.656px"
	 height="173.841px" viewBox="0 0 182.656 173.841" enable-background="new 0 0 182.656 173.841" xml:space="preserve">
<switch>
	<g i:extraneous="self">
		<g>
			<g>
				<rect x="-0.001" y="23.01" fill="#CCCCCC" width="77.645" height="150.831"/>
				<polygon fill="#999999" points="68.058,0 9.586,0 -0.001,23.01 77.644,23.01 				"/>
				<rect x="11.022" y="48.808" fill="#999999" width="55.598" height="11.875"/>
				<rect x="11.022" y="65.442" fill="#999999" width="55.598" height="11.875"/>
				<rect x="11.022" y="82.076" fill="#999999" width="55.598" height="11.875"/>
				<rect x="11.022" y="106.879" fill="#333333" width="55.598" height="5.035"/>
				<ellipse fill="#333333" cx="38.821" cy="111.914" rx="7.189" ry="4.195"/>
				<circle fill="#999999" cx="38.822" cy="144.364" r="11.481"/>
				<g>
					<path fill="none" stroke="#333333" stroke-width="2" stroke-miterlimit="10" d="M42.341,140.197
						c1.357,1.052,2.231,2.698,2.231,4.548c0,3.177-2.575,5.751-5.751,5.751s-5.751-2.574-5.751-5.751
						c0-1.879,0.901-3.547,2.294-4.596"/>
					
						<line fill="none" stroke="#333333" stroke-width="2" stroke-miterlimit="10" x1="38.821" y1="142.987" x2="38.821" y2="136.479"/>
				</g>
			</g>
			<path fill="#B6CCE0" d="M168.595,31.062c-0.37,0-0.732,0.027-1.096,0.056c0.2-0.813,0.318-1.658,0.318-2.534
				c0-5.825-4.723-10.549-10.549-10.549c-3.189,0-6.043,1.423-7.978,3.661C146.753,13.609,139.2,7.74,130.276,7.74
				c-11.006,0-19.927,8.922-19.927,19.927c0,1.754,0.229,3.455,0.654,5.076c-0.571-0.074-1.149-0.127-1.741-0.127
				c-7.337,0-13.285,5.947-13.285,13.284s5.948,13.285,13.285,13.285h58.555v-0.039c0.26,0.014,0.516,0.039,0.777,0.039
				c7.767,0,14.062-6.296,14.062-14.062C182.657,37.357,176.361,31.062,168.595,31.062z M133.63,35.95v7.586h-6.71V35.95h-4.776
				l8.152-8.15l8.152,8.15H133.63z M148.339,51.404l-8.152-8.149h4.818v-7.586h6.711v7.586h4.775L148.339,51.404z"/>
			<g>
				<g>
					<path fill="#808080" d="M140.909,152.983c18.675,0,34.939-6.152,39.99-14.297v-11.418c-7.624,7.283-22.507,12.127-39.99,12.127
						s-32.366-4.844-39.99-12.127v11.418C105.97,146.831,122.233,152.983,140.909,152.983z"/>
					<path fill="#808080" d="M140.909,157.776c-17.483,0-32.366-4.844-39.99-12.127v6.033v0.002
						c0,10.914,17.904,19.764,39.99,19.764s39.99-8.85,39.99-19.764v-0.002v-6.033C173.275,152.933,158.393,157.776,140.909,157.776
						z"/>
					<path fill="#808080" d="M140.909,134.604c18.675,0,34.939-6.153,39.99-14.299v-13.312c-2.338,2.826-5.704,5.373-10.014,7.502
						c-8.071,3.989-18.717,6.186-29.977,6.186s-21.905-2.196-29.977-6.186c-4.311-2.129-7.675-4.676-10.014-7.503v13.312
						C105.97,128.45,122.233,134.604,140.909,134.604z"/>
				</g>
				<ellipse fill="#808080" cx="140.909" cy="96.123" rx="39.99" ry="19.765"/>
			</g>
		</g>
	</g>
</switch>
</svg>
