<?xml version="1.0" encoding="utf-8"?>
<!DOCTYPE svg PUBLIC "-//W3C//DTD SVG 1.1//EN" "http://www.w3.org/Graphics/SVG/1.1/DTD/svg11.dtd" [
        <!ENTITY ns_extend "http://ns.adobe.com/Extensibility/1.0/">
        <!ENTITY ns_ai "http://ns.adobe.com/AdobeIllustrator/10.0/">
        <!ENTITY ns_graphs "http://ns.adobe.com/Graphs/1.0/">
        <!ENTITY ns_vars "http://ns.adobe.com/Variables/1.0/">
        <!ENTITY ns_imrep "http://ns.adobe.com/ImageReplacement/1.0/">
        <!ENTITY ns_sfw "http://ns.adobe.com/SaveForWeb/1.0/">
        <!ENTITY ns_custom "http://ns.adobe.com/GenericCustomNamespace/1.0/">
        <!ENTITY ns_adobe_xpath "http://ns.adobe.com/XPath/1.0/">
        ]>
<svg version="1.1" id="Layer_1" xmlns:x="&ns_extend;" xmlns:i="&ns_ai;" xmlns:graph="&ns_graphs;"
	 xmlns="http://www.w3.org/2000/svg" xmlns:xlink="http://www.w3.org/1999/xlink" x="0px" y="0px" width="199.564px"
	 height="171.565px" viewBox="0 0 199.564 171.565" enable-background="new 0 0 199.564 171.565" xml:space="preserve">
<switch>
	<g i:extraneous="self">
		<g>
			<g>
				<path fill="#4D4D4D" d="M36.095,0h6.509v122.125h-6.509c-8.307,0-15.04-6.69-15.04-14.998v-92.04
					C21.055,6.735,27.788,0,36.095,0z"/>
				<path fill="#4D4D4D" d="M177.116,106.544V0h7.407c8.307,0,15.041,6.735,15.041,15.041v92.086
					c0,8.308-6.734,15.041-15.041,15.041h-7.407V106.544z"/>
				<polygon fill="#668977" points="106.808,0 42.604,0 42.604,122.125 176.578,12.707 177.116,12.707 177.116,0 				"/>
				<polygon fill="#78A389" points="177.116,8.907 176.578,8.907 42.604,122.125 42.604,122.125 177.116,122.125 				"/>
			</g>
			<g>
				<path fill="#CCCCCC" d="M63.686,58.713v4.049H0v-4.049c0-5.169,4.162-9.357,9.33-9.357h44.969
					C59.495,49.355,63.686,53.544,63.686,58.713z"/>
				<path fill="#CCCCCC" d="M9.693,157.511h53.992v4.607c0,5.168-4.19,9.358-9.357,9.358H9.33c-5.168,0-9.357-4.19-9.357-9.358
					v-4.607H9.693z"/>
				<g>
					<polygon fill="#E59683" points="5.366,157.511 -0.027,157.176 0,62.762 63.685,62.762 63.685,157.511 					"/>
				</g>
				<circle fill="#999999" cx="31.841" cy="164.493" r="4.19"/>
				<polygon fill="#C97E6F" points="63.685,67.222 -0.027,124.47 0,62.762 63.685,62.762 				"/>
			</g>
			<path fill="#EAE8DC" d="M99.343,54.329c0,5.324,4.315,9.641,9.64,9.641c0.18,0,0.356-0.018,0.533-0.027v0.027h40.143
				c5.03,0,9.107-4.077,9.107-9.106c0-5.031-4.077-9.108-9.107-9.108c-0.405,0-0.802,0.035-1.193,0.087
				c0.292-1.111,0.448-2.277,0.448-3.479c0-7.546-6.116-13.662-13.661-13.662c-6.117,0-11.295,4.022-13.035,9.566
				c-1.326-1.534-3.282-2.51-5.47-2.51c-3.993,0-7.231,3.238-7.231,7.231c0,0.601,0.082,1.179,0.219,1.737
				c-0.249-0.019-0.498-0.038-0.752-0.038C103.658,44.688,99.343,49.005,99.343,54.329z"/>
			<path fill="#D3D1C1" d="M146.376,34.431c-2.478-3.47-6.536-5.729-11.124-5.729c-6.117,0-11.295,4.022-13.035,9.566
				c-1.326-1.534-3.282-2.51-5.47-2.51c-3.993,0-7.231,3.238-7.231,7.231c0,0.601,0.082,1.179,0.219,1.737
				c-0.249-0.019-0.498-0.038-0.752-0.038c-5.324,0-9.64,4.316-9.64,9.641s4.315,9.641,9.64,9.641c0.18,0,0.356-0.018,0.533-0.027
				v0.027h1.906L146.376,34.431z"/>
			<g>
				<path fill="#333333" d="M19.938,101.029c1.735,0,3.146-1.412,3.146-3.146s-1.41-3.146-3.146-3.146s-3.146,1.411-3.146,3.146
					S18.203,101.029,19.938,101.029z"/>
				<path fill="#333333" d="M43.115,101.029c1.735,0,3.147-1.412,3.147-3.146s-1.412-3.146-3.147-3.146
					c-1.734,0-3.145,1.411-3.145,3.146S41.381,101.029,43.115,101.029z"/>
				<path fill="#333333" d="M46.365,106.529c-1.178,0-2.135,0.958-2.135,2.135c0,8.808-9.391,9.493-12.27,9.493
					s-12.272-0.686-12.272-9.493c0-1.177-0.958-2.135-2.136-2.135c-1.177,0-2.135,0.958-2.135,2.135
					c0,8.489,6.34,13.763,16.543,13.763c10.201,0,16.539-5.273,16.539-13.763C48.5,107.487,47.543,106.529,46.365,106.529z"/>
			</g>
			<polygon fill="#B6CCE0" points="129.055,78.7 132.124,88.148 142.059,88.148 134.021,93.987 137.091,103.435 129.055,97.596 
				121.018,103.435 124.088,93.987 116.051,88.148 125.984,88.148 			"/>
			<polygon fill="#92BAE0" points="70.092,12.748 73.161,22.196 83.096,22.196 75.059,28.035 78.128,37.483 70.092,31.644 
				62.055,37.483 65.125,28.035 57.088,22.196 67.021,22.196 			"/>
			<circle fill="#B6CCE0" cx="14.45" cy="140.169" r="4.905"/>
			<circle fill="#B6CCE0" cx="49.783" cy="79.713" r="6.667"/>
			<path fill="#92BAE0" d="M54.741,75.257c-1.22-1.357-2.989-2.21-4.958-2.21c-3.682,0-6.667,2.984-6.667,6.666
				c0,1.713,0.646,3.274,1.708,4.455L54.741,75.257z"/>
		</g>
	</g>
</switch>
</svg>
