<svg xmlns="http://www.w3.org/2000/svg" xmlns:xlink="http://www.w3.org/1999/xlink" viewBox="0 0 300 250">
    <defs>
        <style>
            .cls-1,.cls-9{fill:none;}.cls-2{fill:#fff;}.cls-3{fill:#f9c8b7;}.cls-4{fill:#78a389;}.cls-5{fill:#725644;}.cls-6{fill:#e8b19a;}.cls-7{clip-path:url(#clip-path);}.cls-8{fill:#b7835c;}.cls-9{stroke:#725644;stroke-miterlimit:10;}.cls-10{fill:#a36161;}.cls-11{fill:#1a1a1a;}.cls-12{fill:#333;}.cls-13{fill:#0082df;}.cls-14{fill:#009bff;}.cls-15{fill:#e59683;}.cls-16{fill:#eae8dc;}.cls-17{fill:#a9edc4;}
        </style>
        <clipPath id="clip-path">
            <path class="cls-1"
                  d="M70.54,96.29a30.09,30.09,0,0,0,30,30h0a30.09,30.09,0,0,0,30-30V68.35a30.09,30.09,0,0,0-30-30h0a30.09,30.09,0,0,0-30,30Z"/>
        </clipPath>
    </defs>
    <title>Asset 4.3</title>
    <g id="Layer_2" data-name="Layer 2">
        <g id="Layer_1-2" data-name="Layer 1">
            <rect class="cls-3" x="39.96" y="154.68" width="11.81" height="56.97"/>
            <rect class="cls-4" x="39.96" y="189.63" width="11.81" height="22.03"/>
            <ellipse class="cls-3" cx="43.2" cy="147.21" rx="14.76" ry="14.28"/>
            <rect class="cls-5" x="70.54" y="83.65" width="60" height="54.97"/>
            <rect class="cls-6" x="93.18" y="117.85" width="14.15" height="45"/>
            <g class="cls-7">
                <path class="cls-3"
                      d="M70.2,96.29a30.09,30.09,0,0,0,30,30h0a30.09,30.09,0,0,0,30-30V68.35a30.09,30.09,0,0,0-30-30h0a30.09,30.09,0,0,0-30,30Z"/>
                <path class="cls-5"
                      d="M121.18,62.22c13.75,0,25-10.18,25-22.62S134.93,17,121.18,17H95.6c-13.75,0-25,10.18-25,22.62s11.25,22.62,25,22.62Z"/>
                <path class="cls-5"
                      d="M33.67,87.33c0,13.75,10.18,25,22.62,25s22.62-11.25,22.62-25V60c0-13.75-10.18-25-22.62-25S33.67,46.27,33.67,60Z"/>
                <path class="cls-5"
                      d="M123,87.33c0,13.75,10.18,25,22.62,25s22.62-11.25,22.62-25V60c0-13.75-10.18-25-22.62-25S123,46.27,123,60Z"/>
            </g>
            <path class="cls-8" d="M109.35,80.47a4,4,0,1,0,7.87,0V77.78a4,4,0,1,0-7.87,0Z"/>
            <path class="cls-9" d="M117.73,68.88c-2.32-2.32-6.32-2.11-8.89.46"/>
            <path class="cls-8" d="M83.85,80.47a4,4,0,1,0,7.87,0V77.78a4,4,0,1,0-7.87,0Z"/>
            <path class="cls-9" d="M92.23,68.88c-2.32-2.32-6.32-2.11-8.89.46"/>
            <path class="cls-4"
                  d="M74.69,211.65V179.74c0-15.19,11.63-27.61,25.84-27.61s25.84,12.43,25.84,27.61v31.91Z"/>
            <path class="cls-9" d="M100.64,96.94c3.85,0,7-2.84,7-6.31s-3.15-6.31-7-6.31V77"/>
            <path class="cls-10" d="M115.83,102.5a15.29,15.29,0,1,1-30.58,0Z"/>
            <polygon class="cls-11" points="232.57 187.88 235.31 208.64 206.66 208.64 209.37 187.88 232.57 187.88"/>
            <path class="cls-12"
                  d="M286.14,175.56v8.71a3.64,3.64,0,0,1-3.65,3.64h-123a3.64,3.64,0,0,1-3.65-3.64v-8.71Z"/>
            <path class="cls-13"
                  d="M286.14,108.86v66.7H155.8v-66.7a3.64,3.64,0,0,1,3.65-3.64h123A3.68,3.68,0,0,1,286.14,108.86Z"/>
            <rect class="cls-12" x="195.72" y="205.63" width="50.52" height="6.03"/>
            <path class="cls-14" d="M208.35,105.24l-42.54,70.32H285.45V106.45a3.6,3.6,0,0,0-2.71-1.23H208.35Z"/>
            <path class="cls-12" d="M155.8,113v-4.13a3.64,3.64,0,0,1,3.65-3.64h123a3.64,3.64,0,0,1,3.65,3.64V113Z"/>
            <rect class="cls-12" x="155.8" y="110.15" width="8" height="70.18"/>
            <rect class="cls-12" x="278.14" y="111.4" width="8" height="68.93"/>
            <circle class="cls-15" cx="216.35" cy="138.68" r="10.69"/>
            <rect class="cls-16" x="199.32" y="156.59" width="41.25" height="6.43"/>
            <circle class="cls-17" cx="227.04" cy="142.56" r="6.81"/>
            <path class="cls-12"
                  d="M51.77,105.45v2.78H17.94v-2.78a4.34,4.34,0,0,1,4.35-4.35H47.42A4.34,4.34,0,0,1,51.77,105.45Z"/>
            <path class="cls-12"
                  d="M51.77,148.88v3.06a4.34,4.34,0,0,1-4.35,4.35H22.3a4.34,4.34,0,0,1-4.35-4.35v-3.06Z"/>
            <path class="cls-14" d="M51.77,108.23v40.65H17.94V108.21H51.77Z"/>
            <polygon class="cls-13" points="35.98 108.21 19.07 148.88 17.94 148.88 17.94 108.21 35.98 108.21"/>
            <circle class="cls-15" cx="33.72" cy="123.15" r="6.24"/>
            <rect class="cls-16" x="28.44" y="133.61" width="14.76" height="3.76"/>
            <circle class="cls-17" cx="39.96" cy="125.42" r="3.98"/>
            <rect class="cls-3" x="13.86" y="116.41" width="16.04" height="6.19" rx="3" ry="3"/>
            <rect class="cls-3" x="13.86" y="124.03" width="17.87" height="6.19" rx="3" ry="3"/>
            <rect class="cls-3" x="13.86" y="131.65" width="17.87" height="6.19" rx="3" ry="3"/>
            <rect class="cls-3" x="13.86" y="139.28" width="16.04" height="6.19" rx="3" ry="3"/>
            <rect class="cls-3" x="51.77" y="124.67" width="6.19" height="25.43" rx="3" ry="3"/>
        </g>
    </g>
</svg>