<svg xmlns="http://www.w3.org/2000/svg" xmlns:xlink="http://www.w3.org/1999/xlink" viewBox="0 0 300 250">
    <defs>
        <style>
            .cls-1,.cls-10,.cls-15,.cls-21{fill:none;}.cls-2{fill:#fff;}.cls-3{fill:#4d4d4d;}.cls-4{fill:#f9c8b7;}.cls-5{fill:#e8b19a;}.cls-6{clip-path:url(#clip-path);}.cls-7{fill:#725644;}.cls-8{fill:#a36161;}.cls-9{fill:#b7835c;}.cls-10{stroke:#725644;}.cls-10,.cls-15,.cls-21{stroke-miterlimit:10;}.cls-11{fill:#78a389;}.cls-12{fill:#d49c76;}.cls-13{clip-path:url(#clip-path-2);}.cls-14{fill:#593e35;}.cls-15{stroke:#593e35;stroke-width:2px;}.cls-16{fill:#1a1a1a;}.cls-17{fill:#ccdfed;}.cls-18{fill:#0f6091;}.cls-19{fill:#ede4bc;}.cls-20{fill:#969489;}.cls-21{stroke:#969489;}.cls-22{fill:#eae8dc;opacity:0.3;}
        </style>
        <clipPath id="clip-path">
            <path class="cls-1"
                  d="M25,131.62A29.42,29.42,0,0,0,54.33,161h0a29.42,29.42,0,0,0,29.33-29.33V104.29A29.42,29.42,0,0,0,54.33,75h0A29.42,29.42,0,0,0,25,104.29Z"/>
        </clipPath>
        <clipPath id="clip-path-2">
            <path class="cls-1"
                  d="M275,134.23a29.42,29.42,0,0,1-29.33,29.33h0a29.42,29.42,0,0,1-29.33-29.33V104.29A29.42,29.42,0,0,1,245.67,75h0A29.42,29.42,0,0,1,275,104.29Z"/>
        </clipPath>
    </defs>
    <title>Asset 1.2</title>
    <g id="Layer_2" data-name="Layer 2">
        <g id="Layer_1-2" data-name="Layer 1">
            <polygon class="cls-3" points="123.59 119.59 84.48 55.66 90.31 52.07 129.42 116 123.59 119.59"/>
            <polygon class="cls-3" points="90.33 146.86 123.88 117.96 131.5 126.06 90.33 146.86"/>
            <circle class="cls-3" cx="130.6" cy="121.46" r="9.29"/>
            <path class="cls-3"
                  d="M80.41,68.39c13.75,0,25-10,25-22.12s-11.25-22.12-25-22.12h-8c-13.75,0-25,10-25,22.12s11.25,22.12,25,22.12Z"/>
            <path class="cls-4"
                  d="M85.44,118c-3.85,0-7,2.78-7,6.17s3.15,6.17,7,6.17h3.91c3.85,0,7-2.78,7-6.17s-3.15-6.17-7-6.17Z"/>
            <rect class="cls-5" x="47.14" y="152.7" width="13.84" height="44"/>
            <g class="cls-6">
                <path class="cls-4"
                      d="M25,131c0,16.5,13.2,30,29.33,30s29.33-13.5,29.33-30V105c0-16.5-13.2-30-29.33-30S25,88.46,25,105Z"/>
                <path class="cls-7"
                      d="M71.35,98.47c13.75,0,25-10,25-22.12s-11.25-22.12-25-22.12h-8c-13.75,0-25,10-25,22.12s11.25,22.12,25,22.12Z"/>
                <path class="cls-7"
                      d="M2.88,122.3c0,13.75,10,25,22.12,25s22.12-11.25,22.12-25V96.7c0-13.75-10-25-22.12-25S2.88,83,2.88,96.7Z"/>
                <path class="cls-8" d="M96.73,134.76a14.95,14.95,0,1,1-29.9,0Z"/>
            </g>
            <rect class="cls-7" x="25" y="119.26" width="22.12" height="53.75"/>
            <path class="cls-4"
                  d="M48.39,120.09c0-3.85-2.78-7-6.17-7s-6.17,3.15-6.17,7V124c0,3.85,2.78,7,6.17,7s6.17-3.15,6.17-7Z"/>
            <path class="cls-9" d="M67.3,116.15a3.87,3.87,0,1,0,7.69,0v-2.63a3.87,3.87,0,1,0-7.69,0Z"/>
            <path class="cls-10" d="M75.49,104.81c-2.27-2.27-6.18-2.06-8.69.45"/>
            <path class="cls-11" d="M29.06,225.84V213.22c0-14.85,11.37-27,25.27-27s25.27,12.15,25.27,27v12.62Z"/>
            <path class="cls-5"
                  d="M215.41,115.35c5.5,0,10,4,10,8.82s-4.5,8.82-10,8.82h-5.62c-5.5,0-10-4-10-8.82s4.5-8.82,10-8.82Z"/>
            <rect class="cls-12" x="236.87" y="152.97" width="17.6" height="44"/>
            <g class="cls-13">
                <path class="cls-5"
                      d="M275,133.56c0,16.5-13.2,30-29.33,30s-29.33-13.5-29.33-30V105c0-16.5,13.2-30,29.33-30S275,88.46,275,105Z"/>
                <path class="cls-14"
                      d="M240.86,96.3c13.75,0,25-10,25-22.12s-11.25-22.12-25-22.12H221.19c-13.75,0-25,10-25,22.12s11.25,22.12,25,22.12Z"/>
                <path class="cls-14"
                      d="M298.7,127.06V100.22c0-13.44-10-24.45-22.12-24.45s-22.12,11-22.12,24.45v26.83Z"/>
                <path class="cls-8" d="M237.42,136.07a14.95,14.95,0,0,1-29.9,0Z"/>
            </g>
            <polygon class="cls-14" points="224.71 96.3 208.74 96.3 226.81 81.87 224.71 96.3"/>
            <path class="cls-7" d="M225.91,116.15a3.87,3.87,0,1,0,7.69,0v-2.63a3.87,3.87,0,1,0-7.69,0Z"/>
            <path class="cls-15" d="M234.1,104.81c-2.27-2.27-6.18-2.06-8.69.45"/>
            <path class="cls-16" d="M240.35,127.06H219.17v-13.2h21.19Zm-19.23-2H238.4v-9.29H221.12Z"/>
            <rect class="cls-16" x="239.37" y="113.86" width="19.07" height="1.96"/>
            <rect class="cls-16" x="216.23" y="113.86" width="3.91" height="1.96"/>
            <polygon class="cls-17" points="234.81 125.1 229.43 125.1 222.47 115.81 227.84 115.81 234.81 125.1"/>
            <path class="cls-5"
                  d="M264.61,120.09c0-3.85-2.78-7-6.17-7s-6.17,3.15-6.17,7V124c0,3.85,2.78,7,6.17,7s6.17-3.15,6.17-7Z"/>
            <polygon class="cls-14" points="266.35 83.57 252.27 66.68 252.27 80 266.35 83.57"/>
            <path class="cls-18"
                  d="M216.33,225.84V212.13a29.42,29.42,0,0,1,29.33-29.33h0A29.42,29.42,0,0,1,275,212.13v13.72Z"/>
            <circle class="cls-19" cx="76.41" cy="42.59" r="9.11"/>
            <rect class="cls-19" x="72.25" y="45.2" width="8.32" height="10.55"/>
            <rect class="cls-20" x="72.25" y="55.75" width="8.32" height="5.27"/>
            <path class="cls-21" d="M75.24,55.75V43.88a1.29,1.29,0,1,0-1.29,1.29h1.29"/>
            <path class="cls-21" d="M77.58,55.75V43.88a1.29,1.29,0,1,1,1.29,1.29H77.58"/>
            <circle class="cls-22" cx="76.41" cy="42.59" r="12.31"/>
        </g>
    </g>
</svg>