<svg xmlns="http://www.w3.org/2000/svg" xmlns:xlink="http://www.w3.org/1999/xlink" viewBox="0 0 300 250">
    <defs>
        <style>
            .cls-1,.cls-15{fill:none;}.cls-2{fill:#fff;}.cls-3{fill:gray;}.cls-4{fill:#999;}.cls-5{fill:#1a1a1a;}.cls-6{fill:#333;}.cls-7{fill:#eae8dc;}.cls-8{fill:#ccdfed;}.cls-9{fill:#bcbbaf;}.cls-10{fill:#92bae0;}.cls-11{fill:#725644;}.cls-12{fill:#f9c8b7;}.cls-13{fill:#78a389;}.cls-14{clip-path:url(#clip-path);}.cls-15{stroke:#725644;stroke-miterlimit:10;}
        </style>
        <clipPath id="clip-path">
            <rect class="cls-1" x="52.66" y="26.88" width="14.42" height="19.22" rx="7" ry="7"/>
        </clipPath>
    </defs>
    <title>Asset 12.4</title>
    <g id="Layer_2" data-name="Layer 2">
        <g id="Layer_1-2" data-name="Layer 1">
            <polygon class="cls-3" points="165.48 164.29 169.14 191.99 130.91 191.99 134.53 164.29 165.48 164.29"/>
            <path class="cls-4"
                  d="M236.94,147.85v11.62a4.85,4.85,0,0,1-4.86,4.86H67.93a4.85,4.85,0,0,1-4.86-4.86V147.85Z"/>
            <path class="cls-5"
                  d="M236.94,58.86v89H63.06v-89A4.85,4.85,0,0,1,67.93,54H232.08A4.9,4.9,0,0,1,236.94,58.86Z"/>
            <rect class="cls-4" x="116.32" y="187.96" width="67.41" height="8.04"/>
            <path class="cls-6" d="M133.16,54,76.41,147.85H236V55.64A4.8,4.8,0,0,0,232.41,54H133.16Z"/>
            <path class="cls-4" d="M63.06,64.36V58.86A4.85,4.85,0,0,1,67.93,54H232.08a4.85,4.85,0,0,1,4.86,4.86v5.51Z"/>
            <rect class="cls-4" x="63.06" y="60.58" width="10.68" height="93.63"/>
            <rect class="cls-4" x="226.27" y="62.25" width="10.68" height="91.96"/>
            <rect class="cls-7" x="122.41" y="87.72" width="24.13" height="4.07"/>
            <rect class="cls-7" x="149.5" y="87.72" width="34.46" height="4.07"/>
            <rect class="cls-7" x="137.75" y="95.87" width="27.44" height="4.07"/>
            <rect class="cls-7" x="122.41" y="95.87" width="11.35" height="4.07"/>
            <rect class="cls-7" x="144.1" y="104.01" width="6.66" height="4.07"/>
            <rect class="cls-7" x="122.41" y="112.15" width="21.69" height="4.07"/>
            <rect class="cls-7" x="122.41" y="104.01" width="18.11" height="4.07"/>
            <rect class="cls-7" x="154.44" y="104.01" width="18.11" height="4.07"/>
            <rect class="cls-7" x="122.41" y="124.37" width="42.78" height="4.07"/>
            <rect class="cls-8" x="210.54" y="75.37" width="85.79" height="64.05"/>
            <polygon class="cls-8" points="193.54 100.49 216.54 100.49 216.54 118.48 193.54 100.49"/>
            <rect class="cls-6" x="220.41" y="85.2" width="28.36" height="4.07"/>
            <rect class="cls-6" x="220.41" y="93.35" width="13.33" height="4.07"/>
            <rect class="cls-6" x="220.41" y="117.78" width="13.33" height="4.07"/>
            <rect class="cls-6" x="238.75" y="117.78" width="13.33" height="4.07"/>
            <rect class="cls-6" x="246.41" y="101.49" width="11.36" height="4.07"/>
            <rect class="cls-6" x="220.41" y="109.64" width="25.48" height="4.07"/>
            <rect class="cls-6" x="220.41" y="101.49" width="21.27" height="4.07"/>
            <rect class="cls-6" x="220.41" y="125.92" width="21.27" height="4.07"/>
            <rect class="cls-9" x="27.54" y="12.53" width="64.67" height="71.67" rx="15" ry="15"/>
            <polygon class="cls-9" points="72.54 79.23 96.2 92.34 87.54 66.54 72.54 79.23"/>
            <rect class="cls-10" x="265.7" y="85.24" width="21" height="44.76"/>
            <rect class="cls-6" x="265.7" y="85.24" width="21" height="20.33"/>
            <circle class="cls-7" cx="276.2" cy="93.35" r="3.88"/>
            <path class="cls-7" d="M283,105.56a6.75,6.75,0,0,0-13.5,0Z"/>
            <rect class="cls-6" x="271.08" y="110.85" width="10.25" height="3.75"/>
            <rect class="cls-6" x="271.08" y="117.94" width="10.25" height="3.75"/>
            <rect class="cls-6" x="40.52" y="22.35" width="38.71" height="38.71"/>
            <rect class="cls-11" x="52.66" y="35.71" width="14.42" height="14.92"/>
            <rect class="cls-12" x="57.58" y="40.54" width="4.58" height="14.92"/>
            <path class="cls-13" d="M67.08,61.06V57.63a7,7,0,0,0-7-7h-.42a7,7,0,0,0-7,7v3.43Z"/>
            <g class="cls-14">
                <rect class="cls-12" x="52.66" y="26.88" width="14.42" height="19.22" rx="7" ry="7"/>
                <rect class="cls-11" x="52.55" y="18.54" width="19.22" height="14.42" rx="7" ry="7"/>
            </g>
            <path class="cls-15" d="M63.5,39.95A3.53,3.53,0,0,1,60,43.47h-.21a3.53,3.53,0,0,1-3.52-3.52"/>
            <line class="cls-15" x1="56.25" y1="34.81" x2="56.25" y2="37.4"/>
            <line class="cls-15" x1="63.5" y1="34.81" x2="63.5" y2="37.4"/>
            <line class="cls-15" x1="59.87" y1="36.98" x2="59.87" y2="39.56"/>
            <rect class="cls-6" x="44.83" y="68.48" width="30.09" height="4.5"/>
        </g>
    </g>
</svg>