<svg xmlns="http://www.w3.org/2000/svg" xmlns:xlink="http://www.w3.org/1999/xlink" viewBox="0 0 300 250">
    <defs>
        <style>
            .cls-1,.cls-13,.cls-16,.cls-24{fill:none;}.cls-2{fill:#fff;}.cls-3{fill:#1a1a1a;}.cls-4{fill:#333;}.cls-5{fill:#0082df;}.cls-6{fill:#009bff;}.cls-7{fill:#e59683;}.cls-8{fill:#eae8dc;}.cls-9{fill:#a9edc4;}.cls-10{fill:#c97e6f;}.cls-11{fill:#999;}.cls-12{fill:#ccdfed;}.cls-13{stroke:#e59683;stroke-width:7px;}.cls-13,.cls-16,.cls-24{stroke-miterlimit:10;}.cls-14{fill:#f0d19e;}.cls-15{fill:#969489;}.cls-16{stroke:#969489;}.cls-17{fill:#90c4a0;}.cls-18{fill:#d3d1c1;}.cls-19{fill:#b6cce0;}.cls-20{fill:#725644;}.cls-21{fill:#f9c8b7;}.cls-22{fill:#78a389;}.cls-23{clip-path:url(#clip-path);}.cls-24{stroke:#725644;}
        </style>
        <clipPath id="clip-path">
            <rect class="cls-1" x="47.62" y="189.34" width="16.58" height="22.1" rx="8.05" ry="8.05"/>
        </clipPath>
    </defs>
    <title>Asset 3.5</title>
    <g id="Layer_2" data-name="Layer 2">
        <g id="Layer_1-2" data-name="Layer 1">
            <polygon class="cls-3" points="246.13 208.6 248.55 226.9 223.3 226.9 225.69 208.6 246.13 208.6"/>
            <path class="cls-4"
                  d="M293.33,197.74v7.67a3.21,3.21,0,0,1-3.21,3.21H181.7a3.21,3.21,0,0,1-3.21-3.21v-7.67Z"/>
            <path class="cls-5"
                  d="M293.33,139v58.78H178.49V139a3.21,3.21,0,0,1,3.21-3.21H290.12A3.24,3.24,0,0,1,293.33,139Z"/>
            <rect class="cls-4" x="213.66" y="224.24" width="44.52" height="5.31"/>
            <path class="cls-6" d="M224.79,135.78l-37.49,62H292.73v-60.9a3.18,3.18,0,0,0-2.39-1.09H224.79Z"/>
            <path class="cls-4" d="M178.49,142.6V139a3.21,3.21,0,0,1,3.21-3.21H290.12a3.21,3.21,0,0,1,3.21,3.21v3.64Z"/>
            <rect class="cls-4" x="178.49" y="140.1" width="7.05" height="61.84"/>
            <rect class="cls-4" x="286.28" y="141.21" width="7.05" height="60.74"/>
            <circle class="cls-7" cx="231.84" cy="165.25" r="9.42"/>
            <rect class="cls-8" x="216.83" y="181.03" width="36.34" height="5.66"/>
            <circle class="cls-9" cx="241.26" cy="168.67" r="6"/>
            <rect class="cls-3" x="57.8" y="93.1" width="81.48" height="73.81"/>
            <rect class="cls-10" x="68.47" y="112.23" width="24.13" height="4.07"/>
            <rect class="cls-8" x="95.56" y="112.23" width="26.23" height="4.07"/>
            <rect class="cls-8" x="83.81" y="104.08" width="27.44" height="4.07"/>
            <rect class="cls-6" x="68.47" y="104.08" width="11.35" height="4.07"/>
            <rect class="cls-6" x="90.16" y="128.52" width="6.66" height="4.07"/>
            <rect class="cls-8" x="68.47" y="120.36" width="36.19" height="4.07"/>
            <rect class="cls-8" x="68.47" y="128.52" width="18.11" height="4.07"/>
            <rect class="cls-8" x="100.5" y="128.52" width="18.11" height="4.07"/>
            <rect class="cls-8" x="68.47" y="140.74" width="25.01" height="4.07"/>
            <rect class="cls-10" x="68.47" y="148.88" width="15.34" height="4.07"/>
            <rect class="cls-8" x="87.35" y="148.88" width="21.32" height="4.07"/>
            <rect class="cls-11" x="57.8" y="87.08" width="81.48" height="6.02"/>
            <rect class="cls-12" x="178.49" y="39.45" width="82.85" height="48.4"/>
            <rect class="cls-11" x="178.49" y="33.43" width="82.85" height="6.03"/>
            <line class="cls-13" x1="139.28" y1="148.88" x2="160.96" y2="148.88"/>
            <polygon class="cls-7" points="158.91 155.82 171 148.84 158.91 141.86 158.91 155.82"/>
            <path class="cls-13" d="M206.67,87.86V98.58A13.65,13.65,0,0,1,193,112.23H159.38"/>
            <polygon class="cls-7" points="161.42 105.29 149.34 112.27 161.42 119.25 161.42 105.29"/>
            <path class="cls-13" d="M28,48.18H62.86A13.65,13.65,0,0,1,76.51,61.83v8.65"/>
            <polygon class="cls-7" points="69.57 68.44 76.55 80.52 83.53 68.44 69.57 68.44"/>
            <path class="cls-13"
                  d="M31.77,205.29a13.65,13.65,0,0,1-13.65-13.65V125.16a13.65,13.65,0,0,1,13.65-13.65h8.65"/>
            <polygon class="cls-7" points="38.38 118.45 50.47 111.47 38.38 104.49 38.38 118.45"/>
            <path class="cls-13" d="M138,48.18H113A13.65,13.65,0,0,0,99.37,61.83v8.65"/>
            <polygon class="cls-7" points="92.43 68.44 99.41 80.52 106.39 68.44 92.43 68.44"/>
            <circle class="cls-14" cx="22.36" cy="43.68" r="15.69"/>
            <rect class="cls-14" x="15.19" y="48.18" width="14.33" height="18.17"/>
            <rect class="cls-15" x="15.19" y="66.34" width="14.33" height="9.08"/>
            <path class="cls-16" d="M20.35,66.34V45.9a2.23,2.23,0,1,0-2.23,2.23h2.23"/>
            <path class="cls-16" d="M24.37,66.34V45.9a2.23,2.23,0,1,1,2.23,2.23H24.37"/>
            <rect class="cls-6" x="235.25" y="66.34" width="12.01" height="54.02"/>
            <polygon class="cls-6" points="241.26 50.77 235.25 66.34 247.26 66.34 241.26 50.77"/>
            <rect class="cls-3" x="235.25" y="71.53" width="12.01" height="3.33"/>
            <rect class="cls-3" x="235.25" y="78.19" width="12.01" height="3.33"/>
            <rect class="cls-3" x="235.25" y="104.08" width="12.01" height="3.33"/>
            <rect class="cls-3" x="235.25" y="110.75" width="12.01" height="3.33"/>
            <circle class="cls-6" cx="199.84" cy="58.56" r="11.25"/>
            <circle class="cls-17" cx="218" cy="73.19" r="5.4"/>
            <circle class="cls-7" cx="223.4" cy="56.18" r="5.4"/>
            <rect class="cls-18" x="104.79" y="181.93" width="37.64" height="41.72" rx="8.73" ry="8.73"/>
            <polygon class="cls-18" points="116.24 184.82 100.5 171.84 107.51 192.21 116.24 184.82"/>
            <rect class="cls-4" x="115.25" y="200.75" width="8.8" height="4.07"/>
            <rect class="cls-4" x="115.25" y="192.61" width="16.81" height="4.07"/>
            <rect class="cls-4" x="115.25" y="208.89" width="14.04" height="4.07"/>
            <circle class="cls-17" cx="138" cy="46.85" r="12.15"/>
            <polygon class="cls-17" points="138 59 155.67 59 144.84 50.77 138 59"/>
            <circle class="cls-14" cx="115.88" cy="30.41" r="9.96"/>
            <polygon class="cls-14" points="115.89 40.37 101.39 40.37 110.28 33.63 115.89 40.37"/>
            <circle class="cls-19" cx="120.81" cy="64.92" r="8.55"/>
            <polygon class="cls-19" points="120.81 73.47 133.24 73.47 125.62 67.68 120.81 73.47"/>
            <rect class="cls-19" x="30.66" y="180.37" width="50.5" height="48.27" rx="11.71" ry="11.71"/>
            <polygon class="cls-19" points="65.8 184.26 89.85 171.03 77.51 194.16 65.8 184.26"/>
            <rect class="cls-20" x="47.62" y="199.49" width="16.58" height="17.16"/>
            <rect class="cls-21" x="53.27" y="205.05" width="5.27" height="17.16"/>
            <path class="cls-22" d="M64.2,228.64V224.7a8.07,8.07,0,0,0-8-8h-.48a8.07,8.07,0,0,0-8,8v3.94Z"/>
            <g class="cls-23">
                <rect class="cls-21" x="47.62" y="189.34" width="16.58" height="22.1" rx="7" ry="7"/>
                <rect class="cls-20" x="47.49" y="179.75" width="22.1" height="16.58" rx="7" ry="7"/>
            </g>
            <path class="cls-24" d="M60.07,204.36a4.06,4.06,0,0,1-4,4h-.24a4.06,4.06,0,0,1-4-4"/>
            <line class="cls-24" x1="51.74" y1="198.46" x2="51.74" y2="201.43"/>
            <line class="cls-24" x1="60.07" y1="198.46" x2="60.07" y2="201.43"/>
            <line class="cls-24" x1="55.91" y1="200.95" x2="55.91" y2="203.92"/>
        </g>
    </g>
</svg>