<svg xmlns="http://www.w3.org/2000/svg" xmlns:xlink="http://www.w3.org/1999/xlink" viewBox="0 0 300 250">
    <defs>
        <style>
            .cls-1,.cls-18{fill:none;}.cls-2{fill:#fff;}.cls-3{fill:gray;}.cls-4{fill:#999;}.cls-5{fill:#1a1a1a;}.cls-6{fill:#333;}.cls-13,.cls-7{fill:#eae8dc;}.cls-8{fill:#ccdfed;}.cls-9{fill:#bcbbaf;}.cls-10{fill:#90c4a0;}.cls-11{fill:#c97e6f;}.cls-12{fill:#92bae0;}.cls-13{fill-rule:evenodd;}.cls-14{fill:#725644;}.cls-15{fill:#f9c8b7;}.cls-16{fill:#78a389;}.cls-17{clip-path:url(#clip-path);}.cls-18{stroke:#725644;stroke-miterlimit:10;}
        </style>
        <clipPath id="clip-path">
            <rect class="cls-1" x="52.66" y="26.88" width="14.42" height="19.22" rx="7" ry="7"/>
        </clipPath>
    </defs>
    <title>Asset 2.6</title>
    <g id="Layer_2" data-name="Layer 2">
        <g id="Layer_1-2" data-name="Layer 1">
            <polygon class="cls-3" points="165.47 164.29 169.13 191.98 130.91 191.98 134.52 164.29 165.47 164.29"/>
            <path class="cls-4"
                  d="M236.94,147.85v11.62a4.85,4.85,0,0,1-4.86,4.86H67.92a4.85,4.85,0,0,1-4.86-4.86V147.85Z"/>
            <path class="cls-5"
                  d="M236.94,58.86v89H63.06v-89A4.85,4.85,0,0,1,67.92,54H232.08A4.9,4.9,0,0,1,236.94,58.86Z"/>
            <rect class="cls-4" x="116.32" y="187.96" width="67.41" height="8.04"/>
            <path class="cls-6" d="M133.16,54,76.4,147.85H236V55.64A4.8,4.8,0,0,0,232.4,54H133.16Z"/>
            <path class="cls-4" d="M63.06,64.36V58.86A4.85,4.85,0,0,1,67.92,54H232.08a4.85,4.85,0,0,1,4.86,4.86v5.51Z"/>
            <rect class="cls-4" x="63.06" y="60.58" width="10.68" height="93.63"/>
            <rect class="cls-4" x="226.26" y="62.25" width="10.68" height="91.96"/>
            <rect class="cls-7" x="122.41" y="87.72" width="24.13" height="4.07"/>
            <rect class="cls-7" x="149.49" y="87.72" width="34.46" height="4.07"/>
            <rect class="cls-7" x="137.74" y="95.86" width="27.44" height="4.07"/>
            <rect class="cls-7" x="122.41" y="95.86" width="11.35" height="4.07"/>
            <rect class="cls-7" x="144.09" y="104.01" width="6.66" height="4.07"/>
            <rect class="cls-7" x="122.41" y="112.15" width="21.69" height="4.07"/>
            <rect class="cls-7" x="122.41" y="104.01" width="18.11" height="4.07"/>
            <rect class="cls-7" x="154.44" y="104.01" width="18.11" height="4.07"/>
            <rect class="cls-7" x="122.41" y="124.37" width="42.78" height="4.07"/>
            <rect class="cls-8" x="210.53" y="75.37" width="85.79" height="64.05"/>
            <polygon class="cls-8" points="193.53 100.49 216.53 100.49 216.53 118.48 193.53 100.49"/>
            <rect class="cls-6" x="220.41" y="85.2" width="28.36" height="4.07"/>
            <rect class="cls-6" x="220.41" y="93.34" width="13.33" height="4.07"/>
            <rect class="cls-6" x="220.41" y="117.78" width="13.33" height="4.07"/>
            <rect class="cls-6" x="238.75" y="117.78" width="13.33" height="4.07"/>
            <rect class="cls-6" x="246.4" y="101.49" width="11.36" height="4.07"/>
            <rect class="cls-6" x="220.41" y="109.63" width="25.48" height="4.07"/>
            <rect class="cls-6" x="220.41" y="101.49" width="21.27" height="4.07"/>
            <rect class="cls-6" x="220.41" y="125.92" width="21.27" height="4.07"/>
            <rect class="cls-9" x="27.53" y="12.53" width="64.67" height="71.67" rx="15" ry="15"/>
            <polygon class="cls-9" points="72.53 79.23 96.2 92.34 87.53 66.54 72.53 79.23"/>
            <path class="cls-10"
                  d="M89,178.71c13.75,0,25-10.18,25-22.62s-11.25-22.62-25-22.62H79.71c-13.75,0-25,10.18-25,22.62s11.25,22.62,25,22.62Z"/>
            <polygon class="cls-10" points="94.66 136.98 109.99 122.89 105.99 143.53 94.66 136.98"/>
            <path class="cls-11"
                  d="M169.67,24.37c-13.75,0-25,10.18-25,22.62s11.25,22.62,25,22.62H179c13.75,0,25-10.18,25-22.62s-11.25-22.62-25-22.62Z"/>
            <polygon class="cls-11" points="164.03 66.1 148.7 80.19 152.7 59.55 164.03 66.1"/>
            <circle class="cls-7" cx="163.42" cy="39.16" r="2.43"/>
            <circle class="cls-7" cx="184.68" cy="39.16" r="2.43"/>
            <path class="cls-7" d="M187.66,46.79a13.21,13.21,0,0,1-26.43,0Z"/>
            <rect class="cls-12" x="265.7" y="85.24" width="21" height="44.76"/>
            <rect class="cls-6" x="265.7" y="85.24" width="21" height="20.33"/>
            <circle class="cls-7" cx="276.2" cy="93.34" r="3.88"/>
            <path class="cls-7" d="M283,105.56a6.75,6.75,0,0,0-13.5,0Z"/>
            <rect class="cls-6" x="271.07" y="110.85" width="10.25" height="3.75"/>
            <rect class="cls-6" x="271.07" y="117.94" width="10.25" height="3.75"/>
            <path class="cls-13"
                  d="M98,163.28c.11.53.21.73-.1,1.05L94.24,168a1.43,1.43,0,0,1-.63.53,2.42,2.42,0,0,1-.83.21h-.53a12,12,0,0,1-1.68-.1,10.45,10.45,0,0,1-2.93-.94,20.63,20.63,0,0,1-3.88-2.09,28.53,28.53,0,0,1-4.6-3.86A33.21,33.21,0,0,1,76,158.06a22.07,22.07,0,0,1-2.09-3.24,14.48,14.48,0,0,1-1.15-2.72,8.62,8.62,0,0,1-.52-2.09,3.09,3.09,0,0,1-.11-1.36v-.52a2.52,2.52,0,0,1,.21-.83c.21-.22.32-.43.53-.63,8.79-8.78,9.32,3.14,8.26,4.19L79.8,152.2s0,.11-.1.11v.21a4.26,4.26,0,0,0,.53,1.36,7.48,7.48,0,0,0,1,1.57,11.09,11.09,0,0,0,1.88,2.3c.83.83,1.68,1.46,2.3,2s1.15.73,1.58,1.05a2.42,2.42,0,0,0,1,.31l.31.11h.22l.1-.11c3.67-5.33,9-.31,9.32,2.19Z"/>
            <rect class="cls-6" x="40.51" y="22.35" width="38.71" height="38.71"/>
            <rect class="cls-14" x="52.66" y="35.71" width="14.42" height="14.92"/>
            <rect class="cls-15" x="57.58" y="40.54" width="4.58" height="14.92"/>
            <path class="cls-16" d="M67.08,61.06V57.63a7,7,0,0,0-7-7h-.42a7,7,0,0,0-7,7v3.43Z"/>
            <g class="cls-17">
                <rect class="cls-15" x="52.66" y="26.88" width="14.42" height="19.22" rx="7" ry="7"/>
                <rect class="cls-14" x="52.55" y="18.54" width="19.22" height="14.42" rx="7" ry="7"/>
            </g>
            <path class="cls-18" d="M63.49,39.95A3.53,3.53,0,0,1,60,43.46h-.21a3.53,3.53,0,0,1-3.52-3.52"/>
            <line class="cls-18" x1="56.24" y1="34.81" x2="56.24" y2="37.39"/>
            <line class="cls-18" x1="63.49" y1="34.81" x2="63.49" y2="37.39"/>
            <line class="cls-18" x1="59.87" y1="36.98" x2="59.87" y2="39.56"/>
            <rect class="cls-6" x="44.82" y="68.48" width="30.09" height="4.5"/>
        </g>
    </g>
</svg>