<svg xmlns="http://www.w3.org/2000/svg" viewBox="0 0 300 250">
    <defs>
        <style>
            .cls-1{fill:#fff;}.cls-2{fill:#1a1a1a;}.cls-3{fill:#333;}.cls-4{fill:gray;}.cls-5{fill:#999;}.cls-6{fill:#c97e6f;}.cls-7{fill:#eae8dc;}.cls-8{fill:#009bff;}.cls-9{fill:#ccdfed;}.cls-10,.cls-14{fill:none;stroke-miterlimit:10;}.cls-10{stroke:#e59683;stroke-width:7px;}.cls-11{fill:#e59683;}.cls-12{fill:#f0d19e;}.cls-13{fill:#969489;}.cls-14{stroke:#969489;}.cls-15{fill:#90c4a0;}.cls-16{fill:#b6cce0;}
        </style>
    </defs>
    <title>Asset 3.2</title>
    <g id="Layer_2" data-name="Layer 2">
        <g id="Layer_1-2" data-name="Layer 1">
            <polygon class="cls-2" points="246.13 208.6 248.55 226.9 223.3 226.9 225.69 208.6 246.13 208.6"/>
            <path class="cls-3"
                  d="M293.33,197.74v7.67a3.21,3.21,0,0,1-3.21,3.21H181.7a3.21,3.21,0,0,1-3.21-3.21v-7.67Z"/>
            <path class="cls-4"
                  d="M293.33,139v58.78H178.49V139a3.21,3.21,0,0,1,3.21-3.21H290.12A3.24,3.24,0,0,1,293.33,139Z"/>
            <rect class="cls-3" x="213.66" y="224.24" width="44.52" height="5.31"/>
            <path class="cls-5" d="M224.79,135.78l-37.49,62H292.73v-60.9a3.17,3.17,0,0,0-2.39-1.09H224.79Z"/>
            <path class="cls-3" d="M178.49,142.6V139a3.21,3.21,0,0,1,3.21-3.21H290.12a3.21,3.21,0,0,1,3.21,3.21v3.64Z"/>
            <rect class="cls-3" x="178.49" y="140.1" width="7.05" height="61.84"/>
            <rect class="cls-3" x="286.28" y="141.21" width="7.05" height="60.74"/>
            <rect class="cls-2" x="57.8" y="93.1" width="81.48" height="73.81"/>
            <rect class="cls-6" x="68.47" y="112.23" width="24.13" height="4.07"/>
            <rect class="cls-7" x="95.56" y="112.23" width="26.23" height="4.07"/>
            <rect class="cls-7" x="83.81" y="104.08" width="27.44" height="4.07"/>
            <rect class="cls-8" x="68.47" y="104.08" width="11.35" height="4.07"/>
            <rect class="cls-8" x="90.16" y="128.52" width="6.66" height="4.07"/>
            <rect class="cls-7" x="68.47" y="120.36" width="36.19" height="4.07"/>
            <rect class="cls-7" x="68.47" y="128.52" width="18.11" height="4.07"/>
            <rect class="cls-7" x="100.5" y="128.52" width="18.11" height="4.07"/>
            <rect class="cls-7" x="68.47" y="140.73" width="25.01" height="4.07"/>
            <rect class="cls-6" x="68.47" y="148.88" width="15.33" height="4.07"/>
            <rect class="cls-7" x="87.35" y="148.88" width="21.32" height="4.07"/>
            <rect class="cls-5" x="57.8" y="87.08" width="81.48" height="6.02"/>
            <rect class="cls-9" x="178.49" y="39.45" width="82.85" height="48.4"/>
            <rect class="cls-5" x="178.49" y="33.43" width="82.85" height="6.03"/>
            <path class="cls-10" d="M28,48.18H62.86A13.65,13.65,0,0,1,76.51,61.83v8.65"/>
            <polygon class="cls-11" points="69.57 68.44 76.55 80.52 83.53 68.44 69.57 68.44"/>
            <path class="cls-10" d="M138,48.18H113A13.65,13.65,0,0,0,99.37,61.83v8.65"/>
            <polygon class="cls-11" points="92.43 68.44 99.41 80.52 106.39 68.44 92.43 68.44"/>
            <circle class="cls-12" cx="22.36" cy="43.68" r="15.69"/>
            <rect class="cls-12" x="15.19" y="48.18" width="14.33" height="18.17"/>
            <rect class="cls-13" x="15.19" y="66.34" width="14.33" height="9.08"/>
            <path class="cls-14" d="M20.35,66.34V45.9a2.23,2.23,0,1,0-2.23,2.23h2.23"/>
            <path class="cls-14" d="M24.37,66.34V45.9a2.23,2.23,0,1,1,2.23,2.23H24.37"/>
            <rect class="cls-8" x="195.92" y="66.34" width="12.01" height="54.02"/>
            <polygon class="cls-8" points="201.92 50.77 195.92 66.34 207.93 66.34 201.92 50.77"/>
            <rect class="cls-2" x="195.92" y="71.52" width="12.01" height="3.33"/>
            <rect class="cls-2" x="195.92" y="78.19" width="12.01" height="3.33"/>
            <rect class="cls-2" x="195.92" y="104.08" width="12.01" height="3.33"/>
            <rect class="cls-2" x="195.92" y="110.75" width="12.01" height="3.33"/>
            <circle class="cls-15" cx="138" cy="46.85" r="12.15"/>
            <polygon class="cls-15" points="138 59 155.67 59 144.84 50.77 138 59"/>
            <circle class="cls-12" cx="115.88" cy="30.41" r="9.96"/>
            <polygon class="cls-12" points="115.89 40.37 101.4 40.37 110.28 33.63 115.89 40.37"/>
            <circle class="cls-16" cx="120.81" cy="64.92" r="8.55"/>
            <polygon class="cls-16" points="120.81 73.47 133.24 73.47 125.62 67.68 120.81 73.47"/>
        </g>
    </g>
</svg>