<?xml version="1.0" encoding="utf-8"?>
<!-- Generator: Adobe Illustrator 15.1.0, SVG Export Plug-In . SVG Version: 6.00 Build 0)  -->
<!DOCTYPE svg PUBLIC "-//W3C//DTD SVG 1.1//EN" "http://www.w3.org/Graphics/SVG/1.1/DTD/svg11.dtd" [
        <!ENTITY ns_extend "http://ns.adobe.com/Extensibility/1.0/">
        <!ENTITY ns_ai "http://ns.adobe.com/AdobeIllustrator/10.0/">
        <!ENTITY ns_graphs "http://ns.adobe.com/Graphs/1.0/">
        <!ENTITY ns_vars "http://ns.adobe.com/Variables/1.0/">
        <!ENTITY ns_imrep "http://ns.adobe.com/ImageReplacement/1.0/">
        <!ENTITY ns_sfw "http://ns.adobe.com/SaveForWeb/1.0/">
        <!ENTITY ns_custom "http://ns.adobe.com/GenericCustomNamespace/1.0/">
        <!ENTITY ns_adobe_xpath "http://ns.adobe.com/XPath/1.0/">
        ]>
<svg version="1.1" id="Layer_1" xmlns:x="&ns_extend;" xmlns:i="&ns_ai;" xmlns:graph="&ns_graphs;"
	 xmlns="http://www.w3.org/2000/svg" xmlns:xlink="http://www.w3.org/1999/xlink" x="0px" y="0px" width="453.613px"
	 height="144.979px" viewBox="0 0 453.613 144.979" enable-background="new 0 0 453.613 144.979" xml:space="preserve">
<switch>
	<g i:extraneous="self">
		<g>
			<g>
				<polygon fill="#1A1A1A" points="400.048,113.047 402.788,133.806 374.136,133.806 376.848,113.047"/>
			</g>
			<g>
				<path fill="#333333" d="M453.613,100.724v8.708c0,2.019-1.626,3.645-3.646,3.645H326.926c-2.018,0-3.646-1.626-3.646-3.645
					v-8.708H453.613z"/>
			</g>
			<g>
				<path fill="#C97E6F" d="M453.613,34.021v66.703H323.28V34.021c0-2.019,1.628-3.645,3.646-3.645h123.042
					C451.987,30.405,453.613,32.032,453.613,34.021z"/>
			</g>
			<g>
				<rect x="363.2" y="130.792" fill="#333333" width="50.524" height="6.027"/>
			</g>
			<g>
				<path fill="#E59683" d="M375.822,30.405l-42.541,70.319h119.64V31.61c-0.663-0.752-1.626-1.234-2.71-1.234h-74.389V30.405z"/>
			</g>
			<g>
				<path fill="#333333" d="M323.28,38.148v-4.127c0-2.019,1.626-3.645,3.646-3.645h123.042c2.019,0,3.646,1.625,3.646,3.645v4.127H323.28z"/>
			</g>
			<g>
				<rect x="323.28" y="35.31" fill="#333333" width="8.002" height="70.183"/>
			</g>
			<g>
				<rect x="445.611" y="36.562" fill="#333333" width="8.002" height="68.931"/>
			</g>
			<g>
				<circle fill="#B6CCE0" cx="356.642" cy="85.097" r="8.8"/>
			</g>
			<g>
				<circle fill="#B6CCE0" cx="422.393" cy="51.461" r="6.809"/>
			</g>
			<g>
				<circle fill="#A9EDC4" cx="425.226" cy="85.088" r="4.81"/>
			</g>
			<g>
				<circle fill="#A9EDC4" cx="381.583" cy="58.27" r="4.81"/>
			</g>
			<g>
				<polygon fill="#EAE8DC" points="400.325,63.836 403.129,72.467 412.204,72.467 404.862,77.801 407.666,86.43 400.325,81.097392.984,86.43 395.789,77.801 388.447,72.467 397.521,72.467"/>
			</g>
			<g>
				<polygon fill="#EAE8DC" points="357.367,46.992 359.457,53.426 366.223,53.426 360.749,57.402 362.84,63.836 357.367,59.86351.894,63.836 353.984,57.402 348.512,53.426 355.276,53.426"/>
			</g>
		</g>
		<g>
			<g>
				<polygon fill="#1A1A1A" points="76.768,113.047 79.508,133.806 50.855,133.806 53.566,113.047"/>
			</g>
			<g>
				<path fill="#333333" d="M130.332,100.724v8.708c0,2.019-1.625,3.645-3.645,3.645H3.645c-2.018,0-3.645-1.626-3.645-3.645v-8.708H130.332z"/>
			</g>
			<g>
				<path fill="#C97E6F" d="M130.332,34.021v66.703H0V34.021c0-2.019,1.627-3.645,3.645-3.645h123.043C128.707,30.405,130.332,32.032,130.332,34.021z"/>
			</g>
			<g>
				<rect x="39.92" y="130.792" fill="#333333" width="50.523" height="6.027"/>
			</g>
			<g>
				<path fill="#E59683" d="M52.541,30.405L10,100.724h119.641V31.61c-0.664-0.752-1.626-1.234-2.711-1.234H52.541V30.405z"/>
			</g>
			<g>
				<path fill="#333333" d="M0,38.148v-4.127c0-2.019,1.625-3.645,3.645-3.645h123.043c2.019,0,3.645,1.625,3.645,3.645v4.127H0z"/>
			</g>
			<g>
				<rect y="35.31" fill="#333333" width="8.002" height="70.183"/>
			</g>
			<g>
				<rect x="122.33" y="36.562" fill="#333333" width="8.002" height="68.931"/>
			</g>
		</g>
		<g>
			<g>
				<rect x="143.328" y="73.029" fill="#92BAE0" width="152.646" height="10"/>
			</g>
			<g>
				<g>
					<polygon fill="#92BAE0" points="293.057,87.945 310.328,77.974 293.057,68.001"/>
				</g>
			</g>
		</g>
		<g>
			<g>
				<g>
					<circle fill="#7EA3C1" cx="244.16" cy="53.699" r="9.666"/>
				</g>
				<g>
					<circle fill="#4D4D4D" cx="244.161" cy="53.699" r="3.838"/>
				</g>
			</g>
			<g>
				<g>
					<circle fill="#7EA3C1" cx="198.292" cy="53.699" r="9.666"/>
				</g>
				<g>
					<circle fill="#4D4D4D" cx="198.291" cy="53.699" r="3.838"/>
				</g>
			</g>
			<g>
				<path fill="#92BAE0" d="M229.979,48.235h-17.728c-11.701,0-21.275,9.573-21.275,21.274v15.128c0,11.699,9.572,21.274,21.272,21.274h17.727c11.701,0,21.275-9.575,21.275-21.274V69.509C251.251,57.808,241.679,48.235,229.979,48.235z"/>
			</g>
			<g>
				<g>
					<g>
						<circle fill="#EAE8DC" cx="206.886" cy="65.297" r="8.974"/>
					</g>
					<g>
						<path fill="#1A1A1A" d="M205.062,66.721c0-1.011,0.816-1.823,1.822-1.823c1.008,0,1.824,0.812,1.824,1.823c0,1.007-0.816,1.823-1.824,1.823C205.879,68.544,205.062,67.729,205.062,66.721z"/>
					</g>
				</g>
				<g>
					<g>
						<circle fill="#EAE8DC" cx="235.344" cy="65.297" r="8.975"/>
					</g>
					<g>
						<path fill="#1A1A1A" d="M233.521,66.721c0-1.011,0.816-1.823,1.822-1.823s1.822,0.812,1.822,1.823c0,1.007-0.816,1.823-1.822,1.823S233.521,67.729,233.521,66.721z"/>
					</g>
				</g>
			</g>
			<g>
				<g>
					<path fill="#EAE8DC" d="M216.135,87.302c0,1.174,0.941,2.139,2.094,2.139c1.15,0,2.092-0.964,2.092-2.139v-2.951c0-1.176-0.941-2.139-2.092-2.139c-1.152,0-2.094,0.963-2.094,2.139V87.302z"/>
				</g>
				<g>
					<path fill="#EAE8DC" d="M221.877,87.302c0,1.174,0.939,2.139,2.093,2.139c1.15,0,2.09-0.964,2.09-2.139v-2.951c0-1.176-0.939-2.139-2.09-2.139c-1.153,0-2.093,0.963-2.093,2.139V87.302z"/>
				</g>
				<g>
					<path fill="#F0D19E" d="M212.139,80.142c0,2.351,1.926,4.276,4.277,4.276h9.398c2.353,0,4.275-1.925,4.275-4.276v-0.395c0-2.351-1.923-4.275-4.275-4.275h-9.398c-2.352,0-4.277,1.924-4.277,4.275V80.142z"/>
				</g>
				<g>
					<circle fill="#1A1A1A" cx="221.114" cy="75.472" r="3.229"/>
				</g>
			</g>
		</g>
		<g>
			<g>
				<g>
					<path fill="#D3D1C1" d="M262.18,111.996c0-4.803,3.93-8.732,8.73-8.732h20.179c4.802,0,8.731,3.929,8.731,8.732v24.252c0,4.802-3.93,8.731-8.731,8.731H270.91c-4.801,0-8.73-3.929-8.73-8.731V111.996z"/>
				</g>
				<g>
					<polygon fill="#D3D1C1" points="273.627,106.157 257.896,93.178 264.896,113.542 "/>
				</g>
			</g>
			<g>
				<g>
					<rect x="272.642" y="122.086" fill="#333333" width="8.797" height="4.073"/>
				</g>
				<g>
					<rect x="272.642" y="113.941" fill="#333333" width="16.813" height="4.072"/>
				</g>
				<g>
					<rect x="272.642" y="130.229" fill="#333333" width="14.038" height="4.072"/>
				</g>
			</g>
		</g>
		<g>
			<circle fill="#668977" cx="162.623" cy="48.235" r="16.365"/>
		</g>
		<g>
			<path fill="#FFFFFF" d="M161.312,41.343h-0.232c-0.498,0-0.822,0.097-0.972,0.291s-0.224,0.598-0.224,1.212v3.337c0,0.586-0.08,1.065-0.241,1.436c-0.161,0.321-0.468,0.617-0.921,0.888c0.774,0.465,1.162,1.079,1.162,1.843v3.76c0,0.631,0.074,1.046,0.224,1.245c0.155,0.199,0.479,0.299,0.972,0.299l0.232-0.008v1.677h-0.474l-0.589,0.033c-0.812,0-1.394-0.219-1.746-0.656s-0.529-1.157-0.529-2.158v-4.084c0-0.288-0.096-0.543-0.29-0.768c-0.194-0.224-0.456-0.375-0.788-0.452v-1.602c0.387-0.088,0.664-0.254,0.83-0.498s0.248-0.606,0.248-1.087v-3.702c0-0.946,0.176-1.634,0.525-2.062c0.35-0.429,0.914-0.644,1.691-0.644l0.639,0.017l0.482,0.017V41.343z"/>
			<path fill="#FFFFFF" d="M164.415,55.645l0.232,0.008c0.493,0,0.813-0.097,0.963-0.291c0.155-0.188,0.232-0.595,0.232-1.22v-3.32c0-0.592,0.08-1.074,0.241-1.444c0.16-0.321,0.467-0.617,0.921-0.888c-0.774-0.465-1.162-1.076-1.162-1.834v-3.777c0-0.642-0.077-1.057-0.232-1.245c-0.161-0.199-0.481-0.299-0.963-0.299l-0.232,0.008v-1.677h0.474l0.58-0.033c0.812,0,1.394,0.219,1.746,0.656c0.357,0.443,0.537,1.162,0.537,2.158v4.101c0,0.288,0.097,0.544,0.291,0.768c0.193,0.225,0.456,0.375,0.788,0.453v1.594c-0.388,0.094-0.664,0.263-0.83,0.506s-0.249,0.603-0.249,1.079v3.702c0,0.946-0.175,1.634-0.525,2.062c-0.35,0.429-0.913,0.644-1.691,0.644l-0.639-0.025h-0.481V55.645z"/>
		</g>
		<g>
			<g>
				<rect x="260.127" fill="#B6CCE0" width="47.201" height="45.595"/>
			</g>
			<g>
				<polygon fill="#B6CCE0" points="266.301,61.415 266.301,42.266 281.279,42.266"/>
			</g>
			<g>
				<g>
					<rect x="271.031" y="25.244" fill="#333333" width="11.098" height="3.391"/>
				</g>
				<g>
					<rect x="286.301" y="25.244" fill="#333333" width="11.099" height="3.391"/>
				</g>
				<g>
					<rect x="271.031" y="18.464" fill="#333333" width="21.213" height="3.389"/>
				</g>
				<g>
					<rect x="271.031" y="11.682" fill="#333333" width="17.711" height="3.389"/>
				</g>
				<g>
					<rect x="271.031" y="32.024" fill="#333333" width="17.711" height="3.389"/>
				</g>
			</g>
		</g>
	</g>
</switch>
</svg>
