<?xml version="1.0" encoding="utf-8"?>
<!-- Generator: Adobe Illustrator 15.1.0, SVG Export Plug-In . SVG Version: 6.00 Build 0)  -->
<!DOCTYPE svg PUBLIC "-//W3C//DTD SVG 1.1//EN" "http://www.w3.org/Graphics/SVG/1.1/DTD/svg11.dtd" [
        <!ENTITY ns_extend "http://ns.adobe.com/Extensibility/1.0/">
        <!ENTITY ns_ai "http://ns.adobe.com/AdobeIllustrator/10.0/">
        <!ENTITY ns_graphs "http://ns.adobe.com/Graphs/1.0/">
        <!ENTITY ns_vars "http://ns.adobe.com/Variables/1.0/">
        <!ENTITY ns_imrep "http://ns.adobe.com/ImageReplacement/1.0/">
        <!ENTITY ns_sfw "http://ns.adobe.com/SaveForWeb/1.0/">
        <!ENTITY ns_custom "http://ns.adobe.com/GenericCustomNamespace/1.0/">
        <!ENTITY ns_adobe_xpath "http://ns.adobe.com/XPath/1.0/">
        ]>
<svg version="1.1" id="Layer_1" xmlns:x="&ns_extend;" xmlns:i="&ns_ai;" xmlns:graph="&ns_graphs;"
	 xmlns="http://www.w3.org/2000/svg" xmlns:xlink="http://www.w3.org/1999/xlink" x="0px" y="0px" width="453.698px"
	 height="277.52px" viewBox="0 0 453.698 277.52" enable-background="new 0 0 453.698 277.52" xml:space="preserve">
<switch>
	<g i:extraneous="self">
		<g>
			<g>
				<g>
					<path fill="#C97E6F" d="M71.274,75.688h-10V26.439c0-8.271,6.729-15,15-15h309.581c8.271,0,15,6.729,15,15v36.4h-10v-36.4c0-2.757-2.243-5-5-5H76.274c-2.757,0-5,2.243-5,5V75.688z"/>
				</g>
				<g>
					<g>
						<polygon fill="#C97E6F" points="405.771,59.922 395.8,77.192 385.827,59.922"/>
					</g>
				</g>
			</g>
			<g>
				<rect x="193.188" y="85.813" fill="#C97E6F" width="10" height="96.505"/>
			</g>
			<g>
				<rect x="166.421" y="69.342" fill="#C97E6F" width="10" height="18.699"/>
			</g>
			<g>
				<g>
					<path fill="#92BAE0" d="M93.698,95.42h-10V49.692c0-8.271,6.729-15,15-15h259c8.271,0,15,6.729,15,15v13.147h-10V49.692c0-2.757-2.243-5-5-5h-259c-2.757,0-5,2.243-5,5V95.42z"/>
				</g>
				<g>
					<g>
						<polygon fill="#92BAE0" points="357.782,59.922 367.753,77.192 377.726,59.922"/>
					</g>
				</g>
			</g>
			<g>
				<rect x="246.198" y="39.692" fill="#92BAE0" width="10" height="71.992"/>
			</g>
			<g>
				<g>
					<polygon fill="#1A1A1A" points="393.79,178.477 396.854,201.694 364.811,201.694 367.843,178.477 					"/>
				</g>
				<g>
					<path fill="#333333" d="M453.698,164.695v9.74c0,2.257-1.818,4.075-4.077,4.075h-137.61c-2.257,0-4.078-1.818-4.078-4.075
						v-9.74H453.698z"/>
				</g>
				<g>
					<path fill="#92BAE0" d="M453.698,90.094v74.601H307.933V90.094c0-2.258,1.821-4.076,4.078-4.076h137.61
						C451.88,86.051,453.698,87.871,453.698,90.094z"/>
				</g>
				<g>
					<rect x="352.579" y="198.323" fill="#333333" width="56.508" height="6.74"/>
				</g>
				<g>
					<path fill="#B6CCE0" d="M366.696,86.051l-47.578,78.644h133.807V87.398c-0.742-0.841-1.818-1.381-3.032-1.381h-83.196V86.051z"
						/>
				</g>
				<g>
					<path fill="#333333" d="M307.933,94.71v-4.617c0-2.258,1.819-4.076,4.078-4.076h137.61c2.259,0,4.077,1.818,4.077,4.076v4.617
						H307.933z"/>
				</g>
				<g>
					<rect x="307.933" y="91.537" fill="#333333" width="8.949" height="78.491"/>
				</g>
				<g>
					<rect x="444.749" y="92.938" fill="#333333" width="8.949" height="77.09"/>
				</g>
				<g>
					<g>
						<g>
							<rect x="364.811" y="108.536" fill="#333333" width="70.431" height="48.404"/>
						</g>
						<g>
							<rect x="364.811" y="102.511" fill="#808080" width="70.431" height="6.026"/>
						</g>
					</g>
					<g>
						<circle fill="#92BAE0" cx="387.413" cy="128.89" r="10.004"/>
					</g>
					<g>
						<circle fill="#90C4A0" cx="404.321" cy="142.273" r="5.404"/>
					</g>
					<g>
						<circle fill="#E59683" cx="409.726" cy="125.26" r="5.404"/>
					</g>
				</g>
				<g>
					<g>
						<rect x="328.043" y="115.653" fill="#333333" width="23.609" height="3.391"/>
					</g>
					<g>
						<rect x="328.043" y="122.435" fill="#333333" width="11.099" height="3.39"/>
					</g>
					<g>
						<rect x="328.043" y="135.996" fill="#333333" width="21.214" height="3.39"/>
					</g>
					<g>
						<rect x="328.043" y="129.215" fill="#333333" width="17.711" height="3.389"/>
					</g>
				</g>
			</g>
			<g>
				<g>
					<path fill="#C97E6F" d="M21.365,161.907h-10V95.813c0-8.271,6.729-15,15-15h185c8.271,0,15,6.729,15,15v30.878
						c0,2.757,2.243,5,5,5h51.982v10h-51.982c-8.271,0-15-6.729-15-15V95.813c0-2.757-2.243-5-5-5h-185c-2.757,0-5,2.243-5,5
						V161.907z"/>
				</g>
				<g>
					<g>
						<polygon fill="#C97E6F" points="280.429,146.608 297.698,136.638 280.429,126.665 						"/>
					</g>
				</g>
			</g>
			<g>
				<g>
					<path fill="#90C4A0" d="M138.699,161.907h-10v-40.704c0-8.271,6.729-15,15-15h139.648v10H143.699c-2.757,0-5,2.243-5,5V161.907
						z"/>
				</g>
				<g>
					<g>
						<polygon fill="#90C4A0" points="280.429,101.287 297.698,111.258 280.429,121.23 						"/>
					</g>
				</g>
			</g>
			<g>
				<g>
					<rect x="133.699" y="156.907" fill="#90C4A0" width="149.648" height="10"/>
				</g>
				<g>
					<g>
						<polygon fill="#90C4A0" points="280.429,171.823 297.698,161.851 280.429,151.878 						"/>
					</g>
				</g>
			</g>
			<g>
				<circle fill="#668977" cx="133.699" cy="161.907" r="16.365"/>
			</g>
			<g>
				<circle fill="#668977" cx="251.198" cy="108.728" r="16.365"/>
			</g>
			<g>
				<circle fill="#A36161" cx="16.365" cy="161.907" r="16.365"/>
			</g>
			<g>
				<g>
					<rect x="46.4" y="74.16" fill="#1A1A1A" width="59.133" height="53.564"/>
				</g>
				<g>
					<g>
						<rect x="54.145" y="88.041" fill="#EAE8DC" width="17.515" height="2.957"/>
					</g>
					<g>
						<rect x="73.8" y="88.041" fill="#EAE8DC" width="19.034" height="2.957"/>
					</g>
					<g>
						<rect x="65.274" y="82.13" fill="#EAE8DC" width="19.916" height="2.955"/>
					</g>
					<g>
						<rect x="54.145" y="82.13" fill="#EAE8DC" width="8.234" height="2.955"/>
					</g>
					<g>
						<rect x="69.883" y="99.862" fill="#EAE8DC" width="4.831" height="2.956"/>
					</g>
					<g>
						<rect x="54.145" y="93.943" fill="#EAE8DC" width="26.261" height="2.955"/>
					</g>
					<g>
						<rect x="54.145" y="99.863" fill="#EAE8DC" width="13.14" height="2.954"/>
					</g>
					<g>
						<rect x="77.392" y="99.863" fill="#EAE8DC" width="13.14" height="2.954"/>
					</g>
					<g>
						<rect x="54.145" y="108.728" fill="#EAE8DC" width="18.153" height="2.956"/>
					</g>
					<g>
						<rect x="54.145" y="114.639" fill="#EAE8DC" width="11.129" height="2.955"/>
					</g>
					<g>
						<rect x="67.843" y="114.639" fill="#EAE8DC" width="15.474" height="2.955"/>
					</g>
				</g>
				<g>
					<rect x="46.4" y="69.787" fill="#999999" width="59.133" height="4.373"/>
				</g>
			</g>
			<g>
				<path fill="#90C4A0" d="M241.198,238.362h-55.833c-8.271,0-15-6.729-15-15v-61.455h10v61.455c0,2.757,2.243,5,5,5h55.833
					c2.757,0,5-2.243,5-5v-61.455h10v61.455C256.198,231.633,249.47,238.362,241.198,238.362z"/>
			</g>
			<g>
				<g>
					<rect x="145.489" y="-0.021" fill="#B6CCE0" width="52.699" height="70.718"/>
				</g>
				<g>
					<polygon fill="#B6CCE0" points="214.764,51.636 195.615,51.636 195.615,66.614 					"/>
				</g>
				<g>
					<g>
						<rect x="153.71" y="23.222" fill="#333333" width="23.609" height="3.391"/>
					</g>
					<g>
						<rect x="153.71" y="30.002" fill="#333333" width="11.099" height="3.391"/>
					</g>
					<g>
						<rect x="153.71" y="50.345" fill="#333333" width="11.099" height="3.391"/>
					</g>
					<g>
						<rect x="168.98" y="50.345" fill="#333333" width="11.099" height="3.391"/>
					</g>
					<g>
						<rect x="175.35" y="36.783" fill="#333333" width="9.458" height="3.391"/>
					</g>
					<g>
						<rect x="153.71" y="43.564" fill="#333333" width="21.213" height="3.389"/>
					</g>
					<g>
						<rect x="153.71" y="9.662" fill="#333333" width="21.213" height="3.39"/>
					</g>
					<g>
						<rect x="153.71" y="36.783" fill="#333333" width="17.711" height="3.389"/>
					</g>
					<g>
						<rect x="175.35" y="16.439" fill="#333333" width="9.458" height="3.391"/>
					</g>
					<g>
						<rect x="153.71" y="16.44" fill="#333333" width="17.711" height="3.389"/>
					</g>
					<g>
						<rect x="153.71" y="57.125" fill="#333333" width="17.711" height="3.39"/>
					</g>
				</g>
			</g>
			<g>
				<g>
					<g>
						<path fill="#EFBBA8" d="M217.569,186.252c0-3.771-3.086-6.857-6.857-6.857h-15.847c-3.771,0-6.857,3.086-6.857,6.857v19.046
							c0,3.771,3.086,6.856,6.857,6.856h15.847c3.771,0,6.857-3.085,6.857-6.856V186.252z"/>
					</g>
					<g>
						<polygon fill="#EFBBA8" points="208.579,181.668 220.934,171.475 215.436,187.467 						"/>
					</g>
				</g>
				<g>
					<g>
						<rect x="195.482" y="194.178" fill="#333333" width="6.908" height="3.197"/>
					</g>
					<g>
						<rect x="195.482" y="187.781" fill="#333333" width="13.204" height="3.198"/>
					</g>
					<g>
						<rect x="195.482" y="200.573" fill="#333333" width="11.024" height="3.197"/>
					</g>
				</g>
			</g>
			<g>
				<g>
					<g>
						<path fill="#A9EDC4" d="M295.225,186.252c0-3.771-3.086-6.857-6.856-6.857h-15.848c-3.771,0-6.856,3.086-6.856,6.857v12
							c0,3.771,3.086,6.855,6.856,6.855h15.848c3.771,0,6.856-3.084,6.856-6.855V186.252z"/>
					</g>
					<g>
						<polygon fill="#A9EDC4" points="274.589,181.668 262.233,171.475 267.731,187.467 						"/>
					</g>
				</g>
				<g>
					<g>
						<rect x="273.138" y="194.178" fill="#333333" width="6.908" height="3.197"/>
					</g>
					<g>
						<rect x="273.138" y="187.781" fill="#333333" width="13.203" height="3.198"/>
					</g>
				</g>
			</g>
			<g>
				<path fill="#FFFFFF" d="M15.054,155.014h-0.232c-0.498,0-0.822,0.098-0.971,0.291s-0.224,0.598-0.224,1.212v3.337
					c0,0.586-0.08,1.065-0.241,1.436c-0.161,0.321-0.468,0.617-0.921,0.889c0.775,0.465,1.162,1.079,1.162,1.843v3.761
					c0,0.631,0.075,1.045,0.224,1.244c0.155,0.199,0.479,0.299,0.971,0.299l0.232-0.008v1.677h-0.473l-0.589,0.033
					c-0.811,0-1.393-0.219-1.746-0.655c-0.353-0.438-0.529-1.157-0.529-2.158v-4.084c0-0.288-0.097-0.544-0.291-0.769
					c-0.194-0.224-0.457-0.374-0.789-0.452v-1.602c0.387-0.089,0.664-0.255,0.83-0.498c0.166-0.244,0.249-0.606,0.249-1.088v-3.702
					c0-0.946,0.175-1.634,0.525-2.062c0.35-0.429,0.914-0.644,1.691-0.644l0.639,0.017l0.481,0.017V155.014z"/>
				<path fill="#FFFFFF" d="M18.157,169.317l0.232,0.008c0.493,0,0.813-0.096,0.963-0.29c0.155-0.188,0.232-0.595,0.232-1.22v-3.32
					c0-0.593,0.08-1.074,0.241-1.445c0.161-0.32,0.468-0.617,0.921-0.888c-0.775-0.465-1.162-1.076-1.162-1.835v-3.776
					c0-0.642-0.078-1.058-0.232-1.245c-0.161-0.199-0.481-0.299-0.963-0.299l-0.232,0.008v-1.676h0.473l0.581-0.033
					c0.811,0,1.393,0.219,1.746,0.655c0.358,0.442,0.537,1.162,0.537,2.158v4.101c0,0.287,0.097,0.544,0.291,0.768
					c0.194,0.225,0.457,0.375,0.789,0.453v1.594c-0.387,0.094-0.664,0.262-0.83,0.506s-0.249,0.604-0.249,1.079v3.702
					c0,0.946-0.175,1.634-0.525,2.062c-0.35,0.43-0.914,0.644-1.691,0.644l-0.639-0.024h-0.481V169.317z"/>
			</g>
			<g>
				<path fill="#FFFFFF" d="M131.939,157.085v1.909l-6.292,2.98l6.292,2.979v1.893l-8.334-4.067v-1.635L131.939,157.085z"/>
				<path fill="#FFFFFF" d="M135.458,166.856v-1.91l6.284-2.971l-6.284-2.988v-1.893l8.326,4.066v1.636L135.458,166.856z"/>
			</g>
			<g>
				<path fill="#FFFFFF" d="M251.874,109.957l1.855,0.724l-2.645,5.297l-1.41-0.584L251.874,109.957z M251.364,104.632
					c0-0.346,0.126-0.646,0.38-0.9c0.253-0.253,0.557-0.38,0.909-0.38s0.655,0.127,0.909,0.38c0.253,0.254,0.38,0.557,0.38,0.909
					c0,0.359-0.127,0.665-0.38,0.918c-0.247,0.248-0.551,0.371-0.909,0.371c-0.359,0-0.665-0.126-0.918-0.38
					C251.487,105.303,251.364,104.997,251.364,104.632z"/>
			</g>
			<g>
				<g>
					<path fill="#90C4A0" d="M315.364,222.026h-64.166v-10h64.166c2.757,0,5-2.243,5-5v-8.315h10v8.315
						C330.364,215.297,323.636,222.026,315.364,222.026z"/>
				</g>
				<g>
					<g>
						<polygon fill="#90C4A0" points="335.28,201.628 325.31,184.358 315.337,201.628 						"/>
					</g>
				</g>
			</g>
			<g>
				<g>
					<g>
						<circle fill="#7EA3C1" cx="96.836" cy="175.315" r="9.666"/>
					</g>
					<g>
						<circle fill="#4D4D4D" cx="96.836" cy="175.315" r="3.838"/>
					</g>
				</g>
				<g>
					<g>
						<circle fill="#7EA3C1" cx="50.968" cy="175.315" r="9.666"/>
					</g>
					<g>
						<circle fill="#4D4D4D" cx="50.967" cy="175.315" r="3.838"/>
					</g>
				</g>
				<g>
					<path fill="#92BAE0" d="M82.655,169.851H64.928c-11.701,0-21.275,9.573-21.275,21.274v10.295v30.939v10.297
						c0,11.699,9.573,21.273,21.272,21.273h17.727c11.701,0,21.275-9.574,21.275-21.273V232.36V201.42v-10.295
						C103.927,179.424,94.354,169.851,82.655,169.851z"/>
				</g>
				<g>
					<g>
						<g>
							<circle fill="#EAE8DC" cx="59.562" cy="186.914" r="8.974"/>
						</g>
						<g>
							<circle fill="#1A1A1A" cx="61.386" cy="182.753" r="1.823"/>
						</g>
					</g>
					<g>
						<g>
							<circle fill="#EAE8DC" cx="88.02" cy="186.914" r="8.975"/>
						</g>
						<g>
							<circle fill="#1A1A1A" cx="89.841" cy="182.753" r="1.823"/>
						</g>
					</g>
				</g>
				<g>
					<g>
						<path fill="#EAE8DC" d="M68.811,208.918c0,1.176,0.941,2.139,2.093,2.139c1.15,0,2.092-0.963,2.092-2.139v-2.951
							c0-1.176-0.941-2.139-2.092-2.139c-1.152,0-2.093,0.963-2.093,2.139V208.918z"/>
					</g>
					<g>
						<path fill="#EAE8DC" d="M74.552,208.918c0,1.176,0.94,2.139,2.093,2.139c1.15,0,2.09-0.963,2.09-2.139v-2.951
							c0-1.176-0.939-2.139-2.09-2.139c-1.153,0-2.093,0.963-2.093,2.139V208.918z"/>
					</g>
					<g>
						<path fill="#F0D19E" d="M64.814,201.758c0,2.35,1.926,4.275,4.277,4.275h9.398c2.353,0,4.276-1.926,4.276-4.275v-0.395
							c0-2.351-1.923-4.275-4.276-4.275h-9.398c-2.351,0-4.277,1.925-4.277,4.275V201.758z"/>
					</g>
					<g>
						<circle fill="#1A1A1A" cx="73.791" cy="197.088" r="3.229"/>
					</g>
				</g>
				<g>
					<g>
						<polygon fill="#92BAE0" points="26.49,191.387 18.032,191.387 47.129,219.338 47.129,202.17 						"/>
					</g>
					<g>
						<path fill="#F0D19E" d="M14.814,188.604c0,2.352,1.926,4.275,4.277,4.275h7.398c2.353,0,4.276-1.924,4.276-4.275v-1.887
							c0-2.351-1.923-4.275-4.276-4.275h-7.398c-2.351,0-4.277,1.925-4.277,4.275V188.604z"/>
					</g>
					<g>
						<path fill="#F0D19E" d="M24.234,188.235c0,1.2,0.982,2.183,2.183,2.183h6.719c1.201,0,2.182-0.982,2.182-2.183v-0.201
							c0-1.199-0.981-2.182-2.182-2.182h-6.719c-1.2,0-2.183,0.982-2.183,2.182V188.235z"/>
					</g>
					<g>
						<path fill="#92BAE0" d="M36.016,196.364c0,0,7.637,4.288,7.637-0.475c0-4.764,5.595,2.115,3.477,6.678s-13.493-3.5-13.056-4.5
							S36.016,196.364,36.016,196.364z"/>
					</g>
					<g>
						<path fill="#92BAE0" d="M32.109,204.91c0,0,11.543,13.657,11.543,21.032s5.858,6.375,6.296-3.25S28.957,196.065,32.109,204.91
							z"/>
					</g>
				</g>
				<g>
					<g>
						<polygon fill="#92BAE0" points="121.204,191.387 129.662,191.387 100.565,219.338 100.565,202.17 						"/>
					</g>
					<g>
						<path fill="#F0D19E" d="M132.879,188.604c0,2.352-1.926,4.275-4.277,4.275h-7.398c-2.353,0-4.276-1.924-4.276-4.275v-1.887
							c0-2.351,1.923-4.275,4.276-4.275h7.398c2.351,0,4.277,1.925,4.277,4.275V188.604z"/>
					</g>
					<g>
						<path fill="#F0D19E" d="M123.459,188.235c0,1.2-0.982,2.183-2.183,2.183h-6.719c-1.201,0-2.182-0.982-2.182-2.183v-0.201
							c0-1.199,0.981-2.182,2.182-2.182h6.719c1.2,0,2.183,0.982,2.183,2.182V188.235z"/>
					</g>
					<g>
						<path fill="#92BAE0" d="M111.678,196.364c0,0-7.637,4.288-7.637-0.475c0-4.764-5.595,2.115-3.477,6.678s13.493-3.5,13.056-4.5
							S111.678,196.364,111.678,196.364z"/>
					</g>
					<g>
						<path fill="#92BAE0" d="M115.585,204.91c0,0-11.543,13.657-11.543,21.032s-5.858,6.375-6.296-3.25
							S118.737,196.065,115.585,204.91z"/>
					</g>
				</g>
				<g>
					<g>
						<path fill="#92BAE0" d="M43.652,241.192v29.333l7.976,0.83c0,0,1.07-7.426,15.237-7.426S43.652,241.192,43.652,241.192z"/>
					</g>
					<g>
						<path fill="#F0D19E" d="M39.632,273.244c0,2.35,1.926,4.275,4.277,4.275h7.398c2.353,0,4.276-1.926,4.276-4.275v-1.889
							c0-2.35-1.923-4.275-4.276-4.275h-7.398c-2.351,0-4.277,1.926-4.277,4.275V273.244z"/>
					</g>
				</g>
				<g>
					<g>
						<path fill="#92BAE0" d="M103.918,241.192v29.333l-7.976,0.83c0,0-1.07-7.426-15.237-7.426S103.918,241.192,103.918,241.192z"
							/>
					</g>
					<g>
						<path fill="#F0D19E" d="M107.938,273.244c0,2.35-1.926,4.275-4.277,4.275h-7.398c-2.353,0-4.276-1.926-4.276-4.275v-1.889
							c0-2.35,1.923-4.275,4.276-4.275h7.398c2.351,0,4.277,1.926,4.277,4.275V273.244z"/>
					</g>
				</g>
			</g>
		</g>
	</g>
</switch>
</svg>
