<?xml version="1.0" encoding="utf-8"?>
<!DOCTYPE svg PUBLIC "-//W3C//DTD SVG 1.1//EN" "http://www.w3.org/Graphics/SVG/1.1/DTD/svg11.dtd" [
        <!ENTITY ns_extend "http://ns.adobe.com/Extensibility/1.0/">
        <!ENTITY ns_ai "http://ns.adobe.com/AdobeIllustrator/10.0/">
        <!ENTITY ns_graphs "http://ns.adobe.com/Graphs/1.0/">
        <!ENTITY ns_vars "http://ns.adobe.com/Variables/1.0/">
        <!ENTITY ns_imrep "http://ns.adobe.com/ImageReplacement/1.0/">
        <!ENTITY ns_sfw "http://ns.adobe.com/SaveForWeb/1.0/">
        <!ENTITY ns_custom "http://ns.adobe.com/GenericCustomNamespace/1.0/">
        <!ENTITY ns_adobe_xpath "http://ns.adobe.com/XPath/1.0/">
        ]>
<svg version="1.1" id="Layer_1" xmlns:x="&ns_extend;" xmlns:i="&ns_ai;" xmlns:graph="&ns_graphs;"
	 xmlns="http://www.w3.org/2000/svg" xmlns:xlink="http://www.w3.org/1999/xlink" x="0px" y="0px" width="255.677px"
	 height="205.882px" viewBox="0 0 255.677 205.882" enable-background="new 0 0 255.677 205.882" xml:space="preserve">
<switch>
	<g i:extraneous="self">
		<g>
			<path fill="#4D4D4D" d="M127.299,60c-16.5,0-30-13.5-30-30l0,0c0-16.5,13.5-30,30-30h30.615c16.5,0,30,13.5,30,30l0,0
				c0,16.5-13.5,30-30,30H127.299z"/>
		</g>
		<g>
			<path fill="#4D4D4D" d="M57.233,44.855c13.75,0,25-10.179,25-22.619c0-12.439-11.25-22.617-25-22.617h-9.308
				c-13.75,0-25,10.178-25,22.617c0,12.44,11.25,22.619,25,22.619H57.233z"/>
		</g>
		<g>
			<path fill="#4D4D4D" d="M117.226,118.166c13.75,0,25-10.178,25-22.618s-11.25-22.618-25-22.618h-9.308
				c-13.75,0-25,10.178-25,22.618s11.25,22.618,25,22.618H117.226z"/>
		</g>
		<g>
			
				<rect x="46.172" y="58.095" transform="matrix(0.5245 0.8514 -0.8514 0.5245 92.0436 -41.6164)" fill="#4D4D4D" width="74.215" height="7"/>
		</g>
		<path fill="#4D4D4D" d="M164.242,99.906V48.244h-7v51.662c0,14.146,11.509,22.116,25.656,22.116v-0.75
			C172.611,121.272,164.242,110.192,164.242,99.906z"/>
		<g>
			<g>
				<path fill="#F9C8B7" d="M61.659,95.548c-3.85,0-7,2.839-7,6.309s3.15,6.309,7,6.309h4.315c3.85,0,7-2.839,7-6.309
					s-3.15-6.309-7-6.309H61.659z"/>
			</g>
			<rect x="22.647" y="131.077" fill="#E8B19A" width="14.149" height="45"/>
			<g>
				<defs>
					<path id="SVGID_1_" d="M0,109.522c0,16.5,13.5,30,30,30l0,0c16.5,0,30-13.5,30-30V81.574c0-16.5-13.5-30-30-30l0,0
						c-16.5,0-30,13.5-30,30V109.522z"/>
				</defs>
				<clipPath id="SVGID_2_">
					<use xlink:href="#SVGID_1_"  overflow="visible"/>
				</clipPath>
				<g clip-path="url(#SVGID_2_)">
					<g>
						<path fill="#F9C8B7" d="M0,109.522c0,16.5,13.5,30,30,30l0,0c16.5,0,30-13.5,30-30V81.574c0-16.5-13.5-30-30-30l0,0
							c-16.5,0-30,13.5-30,30V109.522z"/>
					</g>
					<g>
						<path fill="#725644" d="M47.975,75.613c13.75,0,25-10.179,25-22.619c0-12.439-11.25-22.617-25-22.617h-9.308
							c-13.75,0-25,10.178-25,22.617c0,12.44,11.25,22.619,25,22.619H47.975z"/>
					</g>
					<g>
						<path fill="#725644" d="M-22.618,100.562c0,13.75,10.178,25,22.618,25s22.618-11.25,22.618-25V73.244
							c0-13.75-10.178-25-22.618-25s-22.618,11.25-22.618,25V100.562z"/>
					</g>
					<path fill="#A36161" d="M73.364,112.733c0,8.444-6.845,15.289-15.289,15.289s-15.289-6.845-15.289-15.289H73.364z"/>
				</g>
			</g>
			<rect y="96.882" fill="#725644" width="22.618" height="54.974"/>
			<g>
				<path fill="#F9C8B7" d="M23.926,97.572c0-3.85-2.839-7-6.309-7c-3.469,0-6.308,3.15-6.308,7v4.315c0,3.851,2.839,7,6.308,7
					c3.47,0,6.309-3.149,6.309-7V97.572z"/>
			</g>
			<path fill="#B7835C" d="M43.259,93.701c0,2.4,1.77,4.364,3.933,4.364c2.164,0,3.934-1.964,3.934-4.364V91.01
				c0-2.4-1.77-4.364-3.934-4.364c-2.163,0-3.933,1.964-3.933,4.364V93.701z"/>
			<path fill="none" stroke="#725644" stroke-miterlimit="10" d="M51.637,82.105c-2.318-2.318-6.318-2.11-8.89,0.461"/>
			<path fill="#78A389" d="M4.157,205.882v-12.911c0-15.188,11.629-27.615,25.843-27.615s25.843,12.427,25.843,27.615v12.911H4.157z
				"/>
		</g>
		<g>
			<g>
				<path fill="#E8B19A" d="M194.961,92.881c5.5,0,10,4.061,10,9.024s-4.5,9.025-10,9.025h-6.203c-5.5,0-10-4.062-10-9.025
					s4.5-9.024,10-9.024H194.961z"/>
			</g>
			<rect x="216.676" y="131.355" fill="#D49C76" width="18" height="45"/>
			<g>
				<defs>
					<path id="SVGID_3_" d="M255.677,112.188c0,16.5-13.5,30-30,30l0,0c-16.5,0-30-13.5-30-30V81.574c0-16.5,13.5-30,30-30l0,0
						c16.5,0,30,13.5,30,30V112.188z"/>
				</defs>
				<clipPath id="SVGID_4_">
					<use xlink:href="#SVGID_3_"  overflow="visible"/>
				</clipPath>
				<g clip-path="url(#SVGID_4_)">
					<g>
						<path fill="#E8B19A" d="M255.677,112.188c0,16.5-13.5,30-30,30l0,0c-16.5,0-30-13.5-30-30V81.574c0-16.5,13.5-30,30-30l0,0
							c16.5,0,30,13.5,30,30V112.188z"/>
					</g>
					<g>
						<path fill="#593E35" d="M221.331,73.4c13.75,0,25-10.178,25-22.618s-11.25-22.617-25-22.617h-21.256
							c-13.75,0-25,10.177-25,22.617s11.25,22.618,25,22.618H221.331z"/>
					</g>
					<path fill="#593E35" d="M279.913,104.855V77.412c0-13.75-10.178-25-22.618-25s-22.618,11.25-22.618,25v27.443H279.913z"/>
				</g>
				<path clip-path="url(#SVGID_4_)" fill="#A36161" d="M217.239,114.066c0,8.443-6.845,15.289-15.289,15.289
					s-15.289-6.846-15.289-15.289H217.239z"/>
			</g>
			<polygon fill="#593E35" points="204.241,73.4 187.914,73.4 206.393,58.643 			"/>
			<path fill="#725644" d="M205.473,93.701c0,2.4,1.77,4.364,3.933,4.364c2.164,0,3.934-1.964,3.934-4.364V91.01
				c0-2.4-1.77-4.364-3.934-4.364c-2.163,0-3.933,1.964-3.933,4.364V93.701z"/>
			<path fill="none" stroke="#593E35" stroke-width="2" stroke-miterlimit="10" d="M213.851,82.105
				c-2.318-2.318-6.318-2.11-8.89,0.461"/>
			<g>
				<g>
					<path fill="#1A1A1A" d="M220.241,104.855h-21.667v-13.5h21.667V104.855z M200.575,102.855h17.667v-9.5h-17.667V102.855z"/>
				</g>
				<g>
					<rect x="219.241" y="91.355" fill="#1A1A1A" width="19.5" height="2"/>
				</g>
				<g>
					<rect x="195.576" y="91.355" fill="#1A1A1A" width="3.999" height="2"/>
				</g>
				<polygon fill="#CCDFED" points="214.575,102.855 209.075,102.855 201.95,93.355 207.45,93.355 				"/>
			</g>
			<g>
				<path fill="#E8B19A" d="M245.05,97.572c0-3.85-2.84-7-6.309-7c-3.47,0-6.309,3.15-6.309,7v4.315c0,3.851,2.839,7,6.309,7
					c3.469,0,6.309-3.149,6.309-7V97.572z"/>
			</g>
			<polygon fill="#593E35" points="246.825,60.382 232.433,43.105 232.433,56.73 			"/>
			<path fill="#0F6091" d="M195.676,205.882v-14.026c0-16.5,13.5-30,30-30l0,0c16.5,0,30,13.5,30,30v14.026H195.676z"/>
		</g>
		<g>
			<text transform="matrix(1 0 0 1 104.3882 104.8555)" fill="#78A389" font-family="'Raleway-Bold'" font-size="24">$</text>
		</g>
		<g>
			<circle fill="#EDE4BC" cx="52.579" cy="18.469" r="9.32"/>
			<rect x="48.325" y="21.141" fill="#EDE4BC" width="8.509" height="10.789"/>
			<rect x="48.325" y="31.93" fill="#969489" width="8.509" height="5.395"/>
			<g>
				<g>
					<path fill="none" stroke="#969489" stroke-miterlimit="10" d="M51.384,31.93V19.792c0-0.73-0.592-1.323-1.323-1.323
						c-0.73,0-1.322,0.593-1.322,1.323s0.592,1.323,1.322,1.323h1.323"/>
				</g>
				<g>
					<path fill="none" stroke="#969489" stroke-miterlimit="10" d="M53.774,31.93V19.792c0-0.73,0.592-1.323,1.323-1.323
						c0.73,0,1.322,0.593,1.322,1.323s-0.592,1.323-1.322,1.323h-1.323"/>
				</g>
			</g>
		</g>
		<circle opacity="0.3" fill="#EAE8DC" cx="52.579" cy="18.469" r="12.587"/>
		<g>
			<circle fill="#EAE8DC" cx="124.131" cy="24.03" r="14.881"/>
			<polyline fill="none" stroke="#1A1A1A" stroke-miterlimit="10" points="130.252,24.03 124.131,24.03 124.131,14.482 			"/>
			<line fill="none" stroke="#4D4D4D" stroke-miterlimit="10" x1="124.131" y1="10.586" x2="124.131" y2="12.149"/>
			<line fill="none" stroke="#4D4D4D" stroke-miterlimit="10" x1="124.131" y1="35.899" x2="124.131" y2="37.461"/>
			<line fill="none" stroke="#4D4D4D" stroke-miterlimit="10" x1="110.377" y1="24.023" x2="111.94" y2="24.023"/>
			<line fill="none" stroke="#4D4D4D" stroke-miterlimit="10" x1="135.69" y1="24.023" x2="137.252" y2="24.023"/>
			<line fill="none" stroke="#4D4D4D" stroke-miterlimit="10" x1="112.178" y1="30.742" x2="113.531" y2="29.961"/>
			<line fill="none" stroke="#4D4D4D" stroke-miterlimit="10" x1="134.099" y1="18.086" x2="135.452" y2="17.305"/>
			<line fill="none" stroke="#4D4D4D" stroke-miterlimit="10" x1="117.096" y1="35.661" x2="117.877" y2="34.309"/>
			<line fill="none" stroke="#4D4D4D" stroke-miterlimit="10" x1="129.752" y1="13.74" x2="130.534" y2="12.387"/>
			<line fill="none" stroke="#4D4D4D" stroke-miterlimit="10" x1="117.096" y1="35.661" x2="117.877" y2="34.309"/>
			<line fill="none" stroke="#4D4D4D" stroke-miterlimit="10" x1="129.752" y1="13.74" x2="130.534" y2="12.387"/>
			<line fill="none" stroke="#4D4D4D" stroke-miterlimit="10" x1="130.534" y1="35.662" x2="129.752" y2="34.309"/>
			<line fill="none" stroke="#4D4D4D" stroke-miterlimit="10" x1="117.877" y1="13.74" x2="117.096" y2="12.387"/>
			<line fill="none" stroke="#4D4D4D" stroke-miterlimit="10" x1="135.452" y1="30.742" x2="134.099" y2="29.961"/>
			<line fill="none" stroke="#4D4D4D" stroke-miterlimit="10" x1="113.531" y1="18.086" x2="112.178" y2="17.305"/>
		</g>
		<path fill="#B7835C" d="M171.27,37.896l3.626,0.271l0.921-3.693l-3.584-1.575c-0.05-1.956-0.575-3.796-1.467-5.407l2.397-2.637
			l-2.344-3.002l-3.396,1.829c-1.508-1.114-3.288-1.882-5.222-2.179l-0.596-3.48h-3.808l-0.651,3.804
			c-1.582,0.453-3.031,1.225-4.269,2.246l-3.021-1.907l-2.547,2.828l2.427,3.076c-0.751,1.554-1.173,3.297-1.173,5.137
			c0,0.1,0.005,0.197,0.007,0.295l-3.434,1.232l0.661,3.748l4-0.02c0.826,1.66,2.029,3.102,3.499,4.207l-1.163,3.521l3.361,1.786
			l2.465-3.187c0.788,0.166,1.604,0.254,2.44,0.254c1.042,0,2.053-0.137,3.017-0.391l2.053,3.074l3.478-1.546l-0.986-3.875
			C169.386,41.125,170.525,39.616,171.27,37.896z M153.278,33.207c0-3.929,3.196-7.125,7.125-7.125s7.125,3.196,7.125,7.125
			c0,3.928-3.196,7.123-7.125,7.123S153.278,37.135,153.278,33.207z"/>
		<g>
			<polygon fill="#4D4D4D" points="66.817,125.108 89.424,105.078 96.991,112.522 			"/>
		</g>
	</g>
</switch>
</svg>
