<?xml version="1.0" encoding="utf-8"?>
<!DOCTYPE svg PUBLIC "-//W3C//DTD SVG 1.1//EN" "http://www.w3.org/Graphics/SVG/1.1/DTD/svg11.dtd" [
        <!ENTITY ns_extend "http://ns.adobe.com/Extensibility/1.0/">
        <!ENTITY ns_ai "http://ns.adobe.com/AdobeIllustrator/10.0/">
        <!ENTITY ns_graphs "http://ns.adobe.com/Graphs/1.0/">
        <!ENTITY ns_vars "http://ns.adobe.com/Variables/1.0/">
        <!ENTITY ns_imrep "http://ns.adobe.com/ImageReplacement/1.0/">
        <!ENTITY ns_sfw "http://ns.adobe.com/SaveForWeb/1.0/">
        <!ENTITY ns_custom "http://ns.adobe.com/GenericCustomNamespace/1.0/">
        <!ENTITY ns_adobe_xpath "http://ns.adobe.com/XPath/1.0/">
        ]>
<svg version="1.1" id="Layer_1" xmlns:x="&ns_extend;" xmlns:i="&ns_ai;" xmlns:graph="&ns_graphs;"
	 xmlns="http://www.w3.org/2000/svg" xmlns:xlink="http://www.w3.org/1999/xlink" x="0px" y="0px" width="286.061px"
	 height="209.1px" viewBox="0 0 286.061 209.1" enable-background="new 0 0 286.061 209.1" xml:space="preserve">
<switch>
	<g i:extraneous="self">
		<g>
			<g>
				<g>
					<polygon fill="#1A1A1A" points="239.469,188.153 241.884,206.445 216.636,206.445 219.025,188.153 					"/>
				</g>
				<g>
					<path fill="#333333" d="M286.67,177.294v7.674c0,1.779-1.433,3.212-3.213,3.212H175.035c-1.778,0-3.213-1.433-3.213-3.212
						v-7.674H286.67z"/>
				</g>
				<g>
					<path fill="#0082DF" d="M286.67,118.516v58.778H171.822v-58.778c0-1.778,1.435-3.211,3.213-3.211h108.422
						C285.237,115.33,286.67,116.764,286.67,118.516z"/>
				</g>
				<g>
					<rect x="206.999" y="203.789" fill="#333333" width="44.521" height="5.311"/>
				</g>
				<g>
					<path fill="#009BFF" d="M218.121,115.33l-37.486,61.964h105.426v-60.901c-0.585-0.663-1.434-1.088-2.389-1.088h-65.551V115.33z
						"/>
				</g>
				<g>
					<path fill="#333333" d="M171.822,122.153v-3.638c0-1.778,1.433-3.211,3.213-3.211h108.422c1.779,0,3.213,1.433,3.213,3.211
						v3.638H171.822z"/>
				</g>
				<g>
					<rect x="171.822" y="119.652" fill="#333333" width="7.051" height="61.844"/>
				</g>
				<g>
					<rect x="279.619" y="120.757" fill="#333333" width="7.051" height="60.739"/>
				</g>
				<g>
					<circle fill="#E59683" cx="225.176" cy="144.799" r="9.416"/>
				</g>
				<g>
					<rect x="210.17" y="160.575" fill="#EAE8DC" width="36.345" height="5.664"/>
				</g>
				<g>
					<circle fill="#A9EDC4" cx="234.592" cy="148.216" r="6"/>
				</g>
			</g>
			<g>
				<g>
					<rect x="51.137" y="72.651" fill="#1A1A1A" width="81.481" height="73.808"/>
				</g>
				<g>
					<g>
						<rect x="61.808" y="91.779" fill="#C97E6F" width="24.135" height="4.072"/>
					</g>
					<g>
						<rect x="88.891" y="91.779" fill="#EAE8DC" width="26.228" height="4.072"/>
					</g>
					<g>
						<rect x="77.143" y="83.635" fill="#EAE8DC" width="27.442" height="4.072"/>
					</g>
					<g>
						<rect x="61.808" y="83.635" fill="#009BFF" width="11.347" height="4.072"/>
					</g>
					<g>
						<rect x="83.493" y="108.067" fill="#009BFF" width="6.657" height="4.073"/>
					</g>
					<g>
						<rect x="61.808" y="99.912" fill="#EAE8DC" width="36.186" height="4.071"/>
					</g>
					<g>
						<rect x="61.808" y="108.068" fill="#EAE8DC" width="18.106" height="4.072"/>
					</g>
					<g>
						<rect x="93.84" y="108.068" fill="#EAE8DC" width="18.106" height="4.072"/>
					</g>
					<g>
						<rect x="61.808" y="120.285" fill="#EAE8DC" width="25.014" height="4.072"/>
					</g>
					<g>
						<rect x="61.808" y="128.428" fill="#C97E6F" width="15.335" height="4.072"/>
					</g>
					<g>
						<rect x="80.683" y="128.428" fill="#EAE8DC" width="21.322" height="4.072"/>
					</g>
				</g>
				<g>
					<rect x="51.137" y="66.627" fill="#999999" width="81.481" height="6.024"/>
				</g>
			</g>
			<g>
				<g>
					<rect x="171.822" y="19.004" fill="#CCDFED" width="82.848" height="48.404"/>
				</g>
				<g>
					<rect x="171.822" y="12.979" fill="#999999" width="82.848" height="6.027"/>
				</g>
			</g>
			<g>
				<g>
					<rect x="132.618" y="124.928" fill="#E59683" width="21.672" height="7"/>
				</g>
				<g>
					<g>
						<polygon fill="#E59683" points="152.248,135.369 164.337,128.391 152.248,121.409 						"/>
					</g>
				</g>
			</g>
			<g>
				<g>
					<path fill="#E59683" d="M186.349,95.278h-33.632v-7h33.632c5.598,0,10.151-4.554,10.151-10.151V67.408h7v10.719
						C203.5,87.584,195.806,95.278,186.349,95.278z"/>
				</g>
				<g>
					<g>
						<polygon fill="#E59683" points="154.76,84.837 142.67,91.816 154.76,98.797 						"/>
					</g>
				</g>
			</g>
			<g>
				<g>
					<path fill="#E59683" d="M73.349,50.027h-7v-8.65c0-5.598-4.554-10.152-10.151-10.152H21.365v-7h34.832
						c9.457,0,17.151,7.694,17.151,17.152V50.027z"/>
				</g>
				<g>
					<g>
						<polygon fill="#E59683" points="62.907,47.984 69.887,60.074 76.867,47.984 						"/>
					</g>
				</g>
			</g>
			<g>
				<g>
					<path fill="#E59683" d="M25.105,188.335c-9.457,0-17.15-7.694-17.15-17.151v-66.469c0-9.458,7.693-17.152,17.15-17.152h8.651v7
						h-8.651c-5.597,0-10.15,4.555-10.15,10.152v66.469c0,5.598,4.554,10.151,10.15,10.151V188.335z"/>
				</g>
				<g>
					<g>
						<polygon fill="#E59683" points="31.715,98.006 43.804,91.025 31.715,84.044 						"/>
					</g>
				</g>
			</g>
			<g>
				<g>
					<path fill="#E59683" d="M96.203,50.027h-7v-8.65c0-9.458,7.694-17.152,17.151-17.152h24.978v7h-24.978
						c-5.598,0-10.151,4.555-10.151,10.152V50.027z"/>
				</g>
				<g>
					<g>
						<polygon fill="#E59683" points="85.762,47.984 92.741,60.074 99.723,47.984 						"/>
					</g>
				</g>
			</g>
			<g>
				<g>
					<circle fill="#F0D19E" cx="15.693" cy="23.228" r="15.693"/>
				</g>
				<g>
					<rect x="8.529" y="27.725" fill="#F0D19E" width="14.327" height="18.166"/>
				</g>
				<g>
					<rect x="8.529" y="45.891" fill="#969489" width="14.327" height="9.083"/>
				</g>
				<g>
					<g>
						<g>
							<path fill="#969489" d="M14.182,45.891h-1V28.182h-1.729c-1.504,0-2.727-1.223-2.727-2.727s1.223-2.728,2.727-2.728
								c1.505,0,2.729,1.224,2.729,2.728V45.891z M11.453,23.728c-0.952,0-1.727,0.775-1.727,1.728s0.774,1.727,1.727,1.727h1.729
								v-1.727C13.182,24.503,12.406,23.728,11.453,23.728z"/>
						</g>
					</g>
					<g>
						<g>
							<path fill="#969489" d="M18.205,45.891h-1V25.455c0-1.504,1.224-2.728,2.729-2.728c1.503,0,2.726,1.224,2.726,2.728
								s-1.223,2.727-2.726,2.727h-1.729V45.891z M18.205,27.182h1.729c0.951,0,1.726-0.774,1.726-1.727s-0.774-1.728-1.726-1.728
								c-0.953,0-1.729,0.775-1.729,1.728V27.182z"/>
						</g>
					</g>
				</g>
			</g>
			<g>
				<g>
					<rect x="228.587" y="45.891" fill="#009BFF" width="12.011" height="54.021"/>
				</g>
				<g>
					<polygon fill="#009BFF" points="234.592,30.324 228.587,45.891 240.598,45.891 					"/>
				</g>
				<g>
					<rect x="228.587" y="51.074" fill="#1A1A1A" width="12.011" height="3.334"/>
				</g>
				<g>
					<rect x="228.587" y="57.742" fill="#1A1A1A" width="12.011" height="3.332"/>
				</g>
				<g>
					<rect x="228.587" y="83.635" fill="#1A1A1A" width="12.011" height="3.333"/>
				</g>
				<g>
					<rect x="228.587" y="90.302" fill="#1A1A1A" width="12.011" height="3.333"/>
				</g>
			</g>
			<g>
				<circle fill="#009BFF" cx="193.174" cy="38.107" r="11.254"/>
			</g>
			<g>
				<circle fill="#90C4A0" cx="211.333" cy="52.741" r="5.404"/>
			</g>
			<g>
				<circle fill="#E59683" cx="216.737" cy="35.729" r="5.404"/>
			</g>
			<g>
				<g>
					<g>
						<path fill="#D3D1C1" d="M98.125,170.211c0-4.803,3.929-8.732,8.73-8.732h20.178c4.803,0,8.732,3.93,8.732,8.732v24.252
							c0,4.803-3.93,8.731-8.732,8.731h-20.178c-4.802,0-8.73-3.929-8.73-8.731V170.211z"/>
					</g>
					<g>
						<polygon fill="#D3D1C1" points="109.572,164.373 93.84,151.394 100.842,171.758 						"/>
					</g>
				</g>
				<g>
					<g>
						<rect x="108.586" y="180.302" fill="#333333" width="8.797" height="4.073"/>
					</g>
					<g>
						<rect x="108.586" y="172.156" fill="#333333" width="16.813" height="4.072"/>
					</g>
					<g>
						<rect x="108.586" y="188.445" fill="#333333" width="14.038" height="4.07"/>
					</g>
				</g>
			</g>
			<g>
				<g>
					<g>
						<circle fill="#90C4A0" cx="131.332" cy="26.399" r="12.15"/>
					</g>
				</g>
				<g>
					<polygon fill="#90C4A0" points="131.332,38.549 149.004,38.549 138.17,30.324 					"/>
				</g>
			</g>
			<g>
				<g>
					<g>
						<circle fill="#F0D19E" cx="109.22" cy="9.962" r="9.962"/>
					</g>
				</g>
				<g>
					<polygon fill="#F0D19E" points="109.22,19.924 94.73,19.924 103.613,13.18 					"/>
				</g>
			</g>
			<g>
				<g>
					<g>
						<circle fill="#B6CCE0" cx="114.143" cy="44.475" r="8.545"/>
					</g>
				</g>
				<g>
					<polygon fill="#B6CCE0" points="114.143,53.02 126.572,53.02 118.953,47.234 					"/>
				</g>
			</g>
			<g>
				<g>
					<g>
						<path fill="#B6CCE0" d="M74.49,171.639c0-6.443-5.271-11.715-11.713-11.715H35.706c-6.442,0-11.714,5.271-11.714,11.715
							v24.842c0,6.443,5.271,11.714,11.714,11.714h27.071c6.441,0,11.713-5.271,11.713-11.714V171.639z"/>
					</g>
					<g>
						<polygon fill="#B6CCE0" points="59.133,163.807 83.183,150.574 70.846,173.714 						"/>
					</g>
				</g>
				<g>
					<g>
						<rect x="40.951" y="179.043" fill="#725644" width="16.581" height="17.161"/>
					</g>
					<g>
						<rect x="46.607" y="184.602" fill="#F9C8B7" width="5.268" height="17.16"/>
					</g>
					<g>
						<path fill="#78A389" d="M57.532,208.194v-3.94c0-4.428-3.622-8.05-8.05-8.05H49c-4.427,0-8.049,3.622-8.049,8.05v3.94H57.532z
							"/>
					</g>
					<g>
						<defs>
							<path id="SVGID_1_" d="M40.951,176.936c0-4.428,3.622-8.049,8.049-8.049h0.482c4.428,0,8.05,3.621,8.05,8.049v6.004
								c0,4.428-3.622,8.049-8.05,8.049H49c-4.427,0-8.049-3.621-8.049-8.049V176.936z"/>
						</defs>
						<clipPath id="SVGID_2_">
							<use xlink:href="#SVGID_1_"  overflow="visible"/>
						</clipPath>
						<g clip-path="url(#SVGID_2_)">
							<g>
								<path fill="#F9C8B7" d="M40.951,175.887c0-3.851,3.149-7,7-7h2.581c3.851,0,7,3.149,7,7v8.102c0,3.852-3.149,7-7,7h-2.581
									c-3.851,0-7-3.148-7-7V175.887z"/>
							</g>
							<g>
								<path fill="#725644" d="M47.824,175.883c-3.851,0-7-3.15-7-7v-2.581c0-3.851,3.149-7,7-7h8.104c3.85,0,7,3.149,7,7v2.581
									c0,3.85-3.15,7-7,7H47.824z"/>
							</g>
						</g>
					</g>
					<g>
						<path fill="#725644" d="M49.362,188.461H49.12c-2.507,0-4.546-2.04-4.546-4.547h1c0,1.956,1.591,3.547,3.546,3.547h0.242
							c1.956,0,3.547-1.591,3.547-3.547h1C53.909,186.421,51.869,188.461,49.362,188.461z"/>
					</g>
					<g>
						<rect x="44.574" y="178.009" fill="#725644" width="1" height="2.972"/>
					</g>
					<g>
						<rect x="52.909" y="178.009" fill="#725644" width="1" height="2.972"/>
					</g>
					<g>
						<rect x="48.741" y="180.501" fill="#725644" width="1" height="2.972"/>
					</g>
				</g>
			</g>
		</g>
	</g>
</switch>
</svg>
