<?xml version="1.0" encoding="utf-8"?>
<!DOCTYPE svg PUBLIC "-//W3C//DTD SVG 1.1//EN" "http://www.w3.org/Graphics/SVG/1.1/DTD/svg11.dtd" [
        <!ENTITY ns_extend "http://ns.adobe.com/Extensibility/1.0/">
        <!ENTITY ns_ai "http://ns.adobe.com/AdobeIllustrator/10.0/">
        <!ENTITY ns_graphs "http://ns.adobe.com/Graphs/1.0/">
        <!ENTITY ns_vars "http://ns.adobe.com/Variables/1.0/">
        <!ENTITY ns_imrep "http://ns.adobe.com/ImageReplacement/1.0/">
        <!ENTITY ns_sfw "http://ns.adobe.com/SaveForWeb/1.0/">
        <!ENTITY ns_custom "http://ns.adobe.com/GenericCustomNamespace/1.0/">
        <!ENTITY ns_adobe_xpath "http://ns.adobe.com/XPath/1.0/">
        ]>
<svg version="1.1" id="Layer_1" xmlns:x="&ns_extend;" xmlns:i="&ns_ai;" xmlns:graph="&ns_graphs;"
	 xmlns="http://www.w3.org/2000/svg" xmlns:xlink="http://www.w3.org/1999/xlink" x="0px" y="0px" width="268.79px"
	 height="183.471px" viewBox="0 0 268.79 183.471" enable-background="new 0 0 268.79 183.471" xml:space="preserve">
<switch>
	<g i:extraneous="self">
		<g>
			<polygon fill="#808080" points="137.942,151.758 141.599,179.451 103.373,179.451 106.991,151.758 			"/>
			<path fill="#999999" d="M209.407,135.316v11.617c0,2.695-2.17,4.863-4.863,4.863H40.388c-2.691,0-4.863-2.168-4.863-4.863
				v-11.617H209.407z"/>
			<path fill="#1A1A1A" d="M209.407,46.324v88.992H35.524V46.324c0-2.693,2.172-4.861,4.863-4.861h164.156
				C207.237,41.502,209.407,43.672,209.407,46.324z"/>
			<rect x="88.783" y="175.432" fill="#999999" width="67.407" height="8.039"/>
			<path fill="#333333" d="M105.623,41.502l-56.756,93.814h159.616V43.109c-0.885-1.004-2.168-1.646-3.616-1.646h-99.244V41.502z"/>
			<path fill="#999999" d="M35.524,51.832v-5.508c0-2.693,2.169-4.861,4.863-4.861h164.156c2.693,0,4.863,2.168,4.863,4.861v5.508
				H35.524z"/>
			<rect x="35.524" y="48.045" fill="#999999" width="10.676" height="93.635"/>
			<rect x="198.731" y="49.717" fill="#999999" width="10.676" height="91.963"/>
			<g>
				<rect x="94.874" y="75.188" fill="#EAE8DC" width="24.135" height="4.072"/>
				<rect x="121.958" y="75.188" fill="#EAE8DC" width="34.463" height="4.072"/>
				<rect x="110.209" y="83.332" fill="#EAE8DC" width="27.442" height="4.072"/>
				<rect x="94.874" y="83.332" fill="#EAE8DC" width="11.346" height="4.072"/>
				<rect x="116.56" y="91.475" fill="#EAE8DC" width="6.656" height="4.074"/>
				<rect x="94.874" y="99.623" fill="#EAE8DC" width="21.686" height="4.07"/>
				<rect x="94.874" y="91.477" fill="#EAE8DC" width="18.105" height="4.07"/>
				<rect x="126.907" y="91.477" fill="#EAE8DC" width="18.105" height="4.07"/>
				<rect x="94.874" y="111.838" fill="#EAE8DC" width="42.776" height="4.072"/>
			</g>
		</g>
		<rect x="183" y="62.836" fill="#CCDFED" width="85.79" height="64.053"/>
		<polygon fill="#CCDFED" points="166,87.955 189,87.955 189,105.945 		"/>
		<g>
			<rect x="192.874" y="72.668" fill="#333333" width="28.357" height="4.072"/>
			<rect x="192.874" y="80.812" fill="#333333" width="13.332" height="4.072"/>
			<rect x="192.874" y="105.246" fill="#333333" width="13.332" height="4.072"/>
			<rect x="211.216" y="105.246" fill="#333333" width="13.33" height="4.072"/>
			<rect x="218.867" y="88.957" fill="#333333" width="11.358" height="4.072"/>
			<rect x="192.874" y="97.102" fill="#333333" width="25.48" height="4.072"/>
			<rect x="192.874" y="88.957" fill="#333333" width="21.273" height="4.07"/>
			<rect x="192.874" y="113.391" fill="#333333" width="21.273" height="4.07"/>
		</g>
		<g>
			<path fill="#BCBBAF" d="M64.667,56.668c0,8.25-6.75,15-15,15H15c-8.25,0-15-6.75-15-15V15C0,6.75,6.75,0,15,0h34.667
				c8.25,0,15,6.75,15,15V56.668z"/>
		</g>
		<polygon fill="#BCBBAF" points="45,66.695 68.667,79.812 60,54.01 		"/>
		<g>
			<path fill="#90C4A0" d="M61.487,166.176c13.75,0,25-10.178,25-22.619c0-12.439-11.25-22.617-25-22.617H52.18
				c-13.75,0-25,10.178-25,22.617c0,12.441,11.25,22.619,25,22.619H61.487z"/>
		</g>
		<polygon fill="#90C4A0" points="67.124,124.445 82.458,110.354 78.458,130.998 		"/>
		<g>
			<path fill="#C97E6F" d="M142.138,11.838c-13.75,0-25,10.178-25,22.617c0,12.441,11.25,22.619,25,22.619h9.307
				c13.75,0,25-10.178,25-22.619c0-12.439-11.25-22.617-25-22.617H142.138z"/>
		</g>
		<polygon fill="#C97E6F" points="136.501,53.566 121.167,67.658 125.167,47.016 		"/>
		<g>
			<g>
				<circle fill="#EAE8DC" cx="135.883" cy="26.625" r="2.427"/>
				<circle fill="#EAE8DC" cx="157.146" cy="26.625" r="2.428"/>
			</g>
			<path fill="#EAE8DC" d="M160.126,34.256c0,7.297-5.916,13.213-13.213,13.213c-7.301,0-13.218-5.916-13.218-13.213H160.126z"/>
		</g>
		<g>
			<rect x="238.167" y="72.703" fill="#92BAE0" width="21" height="44.758"/>
			<g>
				<rect x="238.167" y="72.703" fill="#333333" width="21" height="20.326"/>
				<circle fill="#EAE8DC" cx="248.667" cy="80.812" r="3.877"/>
				<path fill="#EAE8DC" d="M255.419,93.027c0-3.729-3.023-6.752-6.752-6.752s-6.752,3.023-6.752,6.752H255.419z"/>
			</g>
			<rect x="243.54" y="98.32" fill="#333333" width="10.254" height="3.75"/>
			<rect x="243.54" y="105.408" fill="#333333" width="10.254" height="3.75"/>
		</g>
		<g>
			<path fill-rule="evenodd" clip-rule="evenodd" fill="#EAE8DC" d="M70.481,150.754c0.107,0.525,0.207,0.732-0.102,1.051
				l-3.669,3.652c-0.101,0.217-0.417,0.426-0.626,0.525c-0.316,0.107-0.524,0.209-0.834,0.209c0,0,0,0-0.107,0
				c-0.108,0-0.209,0-0.418,0c-0.316,0-0.941,0-1.676-0.102c-0.834-0.107-1.775-0.416-2.927-0.941
				c-1.151-0.418-2.411-1.15-3.878-2.092c-1.467-0.943-2.928-2.195-4.604-3.863c-1.252-1.26-2.301-2.518-3.145-3.66
				c-0.934-1.15-1.559-2.303-2.092-3.244c-0.518-1.043-0.936-1.877-1.151-2.719c-0.31-0.734-0.417-1.459-0.518-2.094
				c-0.108-0.516-0.217-1.043-0.108-1.359c0-0.309,0-0.518,0-0.518c0-0.316,0.108-0.523,0.209-0.834
				c0.209-0.215,0.316-0.424,0.525-0.633c8.79-8.781,9.314,3.137,8.264,4.186l-1.359,1.352c0,0,0,0.107-0.1,0.107
				c0,0.109,0,0.209,0,0.209c0.1,0.426,0.209,0.834,0.525,1.359c0.199,0.418,0.518,0.943,1.043,1.568
				c0.417,0.734,1.043,1.469,1.884,2.301c0.835,0.836,1.677,1.461,2.302,1.986c0.626,0.416,1.15,0.732,1.576,1.051
				c0.417,0.199,0.727,0.309,1.043,0.309l0.309,0.107c0,0,0.108,0,0.217,0c0.1-0.107,0.1-0.107,0.1-0.107
				C64.835,143.23,70.173,148.252,70.481,150.754L70.481,150.754z"/>
		</g>
		<g>
			<rect x="12.979" y="9.818" fill="#333333" width="38.709" height="38.709"/>
			<rect x="25.124" y="23.178" fill="#725644" width="14.419" height="14.924"/>
			<rect x="30.043" y="28.012" fill="#F9C8B7" width="4.581" height="14.922"/>
			<path fill="#78A389" d="M39.543,48.527v-3.426c0-3.852-3.149-7-7-7h-0.419c-3.85,0-7,3.148-7,7v3.426H39.543z"/>
			<g>
				<defs>
					<path id="SVGID_1_" d="M25.124,21.346c0-3.85,3.15-7,7-7h0.419c3.851,0,7,3.15,7,7v5.221c0,3.85-3.149,7-7,7h-0.419
						c-3.85,0-7-3.15-7-7V21.346z"/>
				</defs>
				<clipPath id="SVGID_2_">
					<use xlink:href="#SVGID_1_"  overflow="visible"/>
				</clipPath>
				<g clip-path="url(#SVGID_2_)">
					<g>
						<path fill="#F9C8B7" d="M25.124,21.346c0-3.85,3.15-7,7-7h0.419c3.85,0,7,3.15,7,7v5.221c0,3.85-3.15,7-7,7h-0.419
							c-3.85,0-7-3.15-7-7V21.346z"/>
					</g>
					<g>
						<path fill="#725644" d="M32.014,20.43c-3.85,0-7-3.15-7-7v-0.418c0-3.85,3.15-7,7-7h5.222c3.85,0,7,3.15,7,7v0.418
							c0,3.85-3.15,7-7,7H32.014z"/>
					</g>
				</g>
			</g>
			<path fill="none" stroke="#725644" stroke-miterlimit="10" d="M35.958,27.414c0,1.936-1.584,3.518-3.52,3.518h-0.211
				c-1.935,0-3.518-1.582-3.518-3.518"/>
			<line fill="none" stroke="#725644" stroke-miterlimit="10" x1="28.71" y1="22.279" x2="28.71" y2="24.863"/>
			<line fill="none" stroke="#725644" stroke-miterlimit="10" x1="35.958" y1="22.279" x2="35.958" y2="24.863"/>
			<line fill="none" stroke="#725644" stroke-miterlimit="10" x1="32.333" y1="24.445" x2="32.333" y2="27.029"/>
		</g>
		<rect x="17.29" y="55.945" fill="#333333" width="30.086" height="4.5"/>
	</g>
</switch>
</svg>
