<?xml version="1.0" encoding="utf-8"?>
<!DOCTYPE svg PUBLIC "-//W3C//DTD SVG 1.1//EN" "http://www.w3.org/Graphics/SVG/1.1/DTD/svg11.dtd" [
        <!ENTITY ns_extend "http://ns.adobe.com/Extensibility/1.0/">
        <!ENTITY ns_ai "http://ns.adobe.com/AdobeIllustrator/10.0/">
        <!ENTITY ns_graphs "http://ns.adobe.com/Graphs/1.0/">
        <!ENTITY ns_vars "http://ns.adobe.com/Variables/1.0/">
        <!ENTITY ns_imrep "http://ns.adobe.com/ImageReplacement/1.0/">
        <!ENTITY ns_sfw "http://ns.adobe.com/SaveForWeb/1.0/">
        <!ENTITY ns_custom "http://ns.adobe.com/GenericCustomNamespace/1.0/">
        <!ENTITY ns_adobe_xpath "http://ns.adobe.com/XPath/1.0/">
        ]>
<svg version="1.1" id="Layer_1" xmlns:x="&ns_extend;" xmlns:i="&ns_ai;" xmlns:graph="&ns_graphs;"
	 xmlns="http://www.w3.org/2000/svg" xmlns:xlink="http://www.w3.org/1999/xlink" x="0px" y="0px" width="272.276px"
	 height="173.311px" viewBox="0 0 272.276 173.311" enable-background="new 0 0 272.276 173.311" xml:space="preserve">
<switch>
	<g i:extraneous="self">
		<g>
			<rect x="26.102" y="116.337" fill="#F9C8B7" width="11.812" height="56.973"/>
			<rect x="26.101" y="151.284" fill="#78A389" width="11.811" height="22.025"/>
			<ellipse fill="#F9C8B7" cx="29.342" cy="108.864" rx="14.763" ry="14.281"/>
			<g>
				<rect x="56.675" y="45.308" fill="#725644" width="60" height="54.975"/>
				<rect x="79.321" y="79.503" fill="#E8B19A" width="14.149" height="45"/>
				<g>
					<defs>
						<path id="SVGID_1_" d="M56.675,57.948c0,16.5,13.5,30,30,30l0,0c16.5,0,30-13.5,30-30V30.001c0-16.501-13.5-30.001-30-30.001
							l0,0c-16.5,0-30,13.5-30,30.001V57.948z"/>
					</defs>
					<clipPath id="SVGID_2_">
						<use xlink:href="#SVGID_1_"  overflow="visible"/>
					</clipPath>
					<g clip-path="url(#SVGID_2_)">
						<g>
							<path fill="#F9C8B7" d="M56.341,57.948c0,16.5,13.5,30,30,30l0,0c16.5,0,30-13.5,30-30V30.001
								c0-16.501-13.5-30.001-30-30.001l0,0c-16.5,0-30,13.5-30,30.001V57.948z"/>
						</g>
						<g>
							<path fill="#725644" d="M107.321,23.872c13.75,0,25-10.179,25-22.618s-11.25-22.618-25-22.618H81.742
								c-13.75,0-25,10.179-25,22.618s11.25,22.618,25,22.618H107.321z"/>
						</g>
						<g>
							<path fill="#725644" d="M19.806,48.987c0,13.75,10.179,25,22.619,25c12.439,0,22.617-11.25,22.617-25V21.671
								c0-13.75-10.178-25-22.617-25c-12.44,0-22.619,11.25-22.619,25V48.987z"/>
						</g>
						<g>
							<path fill="#725644" d="M109.146,48.987c0,13.75,10.178,25,22.617,25c12.44,0,22.619-11.25,22.619-25V21.671
								c0-13.75-10.179-25-22.619-25c-12.439,0-22.617,11.25-22.617,25V48.987z"/>
						</g>
					</g>
				</g>
				<g>
					<g>
						<path fill="#B7835C" d="M95.491,42.127c0,2.401,1.77,4.364,3.933,4.364c2.164,0,3.934-1.963,3.934-4.364v-2.69
							c0-2.4-1.77-4.365-3.934-4.365c-2.163,0-3.933,1.965-3.933,4.365V42.127z"/>
						<path fill="none" stroke="#725644" stroke-miterlimit="10" d="M103.869,30.531c-2.317-2.317-6.318-2.11-8.89,0.462"/>
					</g>
					<g>
						<path fill="#B7835C" d="M69.991,42.127c0,2.401,1.77,4.364,3.933,4.364c2.164,0,3.934-1.963,3.934-4.364v-2.69
							c0-2.4-1.77-4.365-3.934-4.365c-2.163,0-3.933,1.965-3.933,4.365V42.127z"/>
						<path fill="none" stroke="#725644" stroke-miterlimit="10" d="M78.369,30.531c-2.317-2.317-6.318-2.11-8.89,0.462"/>
					</g>
				</g>
				<path fill="#78A389" d="M60.831,173.31v-31.913c0-15.188,11.63-27.614,25.844-27.614c14.213,0,25.842,12.426,25.842,27.614
					v31.913H60.831z"/>
				<path fill="none" stroke="#725644" stroke-miterlimit="10" d="M86.774,58.591c3.85,0,7-2.838,7-6.309
					c0-3.469-3.15-6.309-7-6.309V38.7"/>
				<path fill="#A36161" d="M101.964,64.159c0,8.444-6.846,15.289-15.289,15.289c-8.444,0-15.289-6.845-15.289-15.289H101.964z"/>
			</g>
			<g>
				<polygon fill="#1A1A1A" points="218.711,149.538 221.451,170.298 192.799,170.298 195.511,149.538 				"/>
				<path fill="#333333" d="M272.276,137.216v8.708c0,2.019-1.626,3.646-3.646,3.646H145.589c-2.018,0-3.646-1.627-3.646-3.646
					v-8.708H272.276z"/>
				<path fill="#0082DF" d="M272.276,70.513v66.703H141.943V70.513c0-2.02,1.628-3.645,3.646-3.645h123.042
					C270.65,66.896,272.276,68.523,272.276,70.513z"/>
				<rect x="181.863" y="167.283" fill="#333333" width="50.524" height="6.026"/>
				<path fill="#009BFF" d="M194.485,66.896l-42.541,70.319h119.64V68.103c-0.663-0.752-1.626-1.234-2.71-1.234h-74.389V66.896z"/>
				<path fill="#333333" d="M141.943,74.64v-4.127c0-2.02,1.626-3.645,3.646-3.645h123.042c2.019,0,3.646,1.625,3.646,3.645v4.127
					H141.943z"/>
				<rect x="141.943" y="71.802" fill="#333333" width="8.002" height="70.183"/>
				<rect x="264.274" y="73.055" fill="#333333" width="8.002" height="68.93"/>
				<g>
					<circle fill="#E59683" cx="202.491" cy="100.339" r="10.686"/>
					<rect x="185.462" y="118.242" fill="#EAE8DC" width="41.245" height="6.428"/>
					<circle fill="#A9EDC4" cx="213.177" cy="104.216" r="6.809"/>
				</g>
			</g>
			<g>
				<path fill="#333333" d="M37.913,67.104v2.778H4.083v-2.778c0-2.409,1.941-4.351,4.351-4.351h25.128
					C35.972,62.753,37.913,64.694,37.913,67.104z"/>
				<path fill="#333333" d="M37.913,110.536v3.063c0,2.411-1.941,4.351-4.352,4.351H8.434c-2.409,0-4.351-1.939-4.351-4.351v-3.063
					H37.913z"/>
				<path fill="#009BFF" d="M37.913,69.882v40.654H4.083V69.861h33.83V69.882z"/>
				<polygon fill="#0082DF" points="22.124,69.861 5.21,110.536 4.083,110.536 4.083,69.861 				"/>
			</g>
			<g>
				<circle fill="#E59683" cx="19.86" cy="84.806" r="6.242"/>
				<rect x="14.579" y="95.263" fill="#EAE8DC" width="14.76" height="3.756"/>
				<circle fill="#A9EDC4" cx="26.102" cy="87.07" r="3.978"/>
			</g>
			<g>
				<g>
					<path fill="#F9C8B7" d="M0.001,81.062c0-1.649,1.35-3,3-3h10.037c1.65,0,3,1.351,3,3v0.191c0,1.65-1.35,3-3,3H3.001
						c-1.65,0-3-1.35-3-3V81.062z"/>
				</g>
				<g>
					<path fill="#F9C8B7" d="M0.001,88.685c0-1.649,1.35-3,3-3h11.871c1.649,0,3,1.351,3,3v0.191c0,1.65-1.351,3-3,3H3.001
						c-1.65,0-3-1.35-3-3V88.685z"/>
				</g>
				<g>
					<path fill="#F9C8B7" d="M0.001,96.309c0-1.649,1.35-3,3-3h11.871c1.649,0,3,1.351,3,3v0.192c0,1.648-1.351,3-3,3H3.001
						c-1.65,0-3-1.352-3-3V96.309z"/>
				</g>
				<g>
					<path fill="#F9C8B7" d="M0.001,103.933c0-1.65,1.35-3,3-3h10.037c1.65,0,3,1.35,3,3v0.189c0,1.65-1.35,3-3,3H3.001
						c-1.65,0-3-1.35-3-3V103.933z"/>
				</g>
			</g>
			<g>
				<path fill="#F9C8B7" d="M41.104,86.328c1.65,0,3,1.35,3,3v19.426c0,1.649-1.35,3-3,3h-0.191c-1.65,0-3-1.351-3-3V89.328
					c0-1.65,1.35-3,3-3H41.104z"/>
			</g>
		</g>
	</g>
</switch>
</svg>
