<?xml version="1.0" encoding="utf-8"?>
<!-- Generator: Adobe Illustrator 15.1.0, SVG Export Plug-In . SVG Version: 6.00 Build 0)  -->
<!DOCTYPE svg PUBLIC "-//W3C//DTD SVG 1.1//EN" "http://www.w3.org/Graphics/SVG/1.1/DTD/svg11.dtd" [
        <!ENTITY ns_extend "http://ns.adobe.com/Extensibility/1.0/">
        <!ENTITY ns_ai "http://ns.adobe.com/AdobeIllustrator/10.0/">
        <!ENTITY ns_graphs "http://ns.adobe.com/Graphs/1.0/">
        <!ENTITY ns_vars "http://ns.adobe.com/Variables/1.0/">
        <!ENTITY ns_imrep "http://ns.adobe.com/ImageReplacement/1.0/">
        <!ENTITY ns_sfw "http://ns.adobe.com/SaveForWeb/1.0/">
        <!ENTITY ns_custom "http://ns.adobe.com/GenericCustomNamespace/1.0/">
        <!ENTITY ns_adobe_xpath "http://ns.adobe.com/XPath/1.0/">
        ]>
<svg version="1.1" id="Layer_1" xmlns:x="&ns_extend;" xmlns:i="&ns_ai;" xmlns:graph="&ns_graphs;"
	 xmlns="http://www.w3.org/2000/svg" xmlns:xlink="http://www.w3.org/1999/xlink" x="0px" y="0px" width="700px" height="300px"
	 viewBox="0 0 700 300" enable-background="new 0 0 700 300" xml:space="preserve">
<switch>
	<g i:extraneous="self">
		<g>
			<g>
				<path fill="#FCFCFC" d="M136.627,251.723h-1.097l3.389-16.031h5.252l-0.219,1.053h-4.156l-1.415,6.733h3.904l-0.219,1.042
					h-3.915L136.627,251.723z"/>
				<path fill="#FCFCFC" d="M159.374,235.692l-2.357,10.999c-0.402,1.849-0.956,3.187-1.661,4.013s-1.658,1.239-2.856,1.239
					c-0.914,0-1.61-0.285-2.089-0.855c-0.479-0.57-0.718-1.367-0.718-2.391c0-0.548,0.065-1.147,0.197-1.798l2.413-11.207h1.074
					l-2.423,11.338c-0.139,0.585-0.208,1.14-0.208,1.667c0,1.477,0.628,2.215,1.886,2.215c0.833,0,1.515-0.329,2.045-0.987
					c0.53-0.658,0.949-1.729,1.256-3.213l2.357-11.021H159.374z"/>
				<path fill="#FCFCFC" d="M172.889,251.723h-1.327l-2.204-14.375h-0.087c-0.103,0.841-0.267,1.798-0.494,2.873l-2.423,11.502
					h-1.075l3.389-16.031h1.437l2.105,14.211h0.077l0.153-0.943l0.384-2.062l2.379-11.207h1.075L172.889,251.723z"/>
				<path fill="#FCFCFC" d="M189.703,236.493c-0.951,0-1.848,0.471-2.692,1.415c-0.844,0.943-1.531,2.242-2.061,3.898
					c-0.53,1.656-0.795,3.255-0.795,4.797c0,1.491,0.188,2.586,0.565,3.284s1.007,1.047,1.892,1.047
					c0.556,0,1.184-0.143,1.886-0.428v1.042c-0.687,0.263-1.371,0.395-2.05,0.395c-1.119,0-1.959-0.422-2.522-1.267
					s-0.844-2.137-0.844-3.876c0-1.871,0.312-3.715,0.938-5.532c0.625-1.817,1.451-3.242,2.478-4.277
					c1.027-1.034,2.136-1.551,3.328-1.551c0.892,0,1.608,0.227,2.149,0.68l-0.669,0.943
					C190.865,236.683,190.332,236.493,189.703,236.493z"/>
				<path fill="#FCFCFC" d="M199.05,251.723h-1.107l3.169-14.979h-2.807l0.23-1.053h6.711l-0.219,1.053h-2.807L199.05,251.723z"/>
				<path fill="#FCFCFC" d="M209.877,251.723l3.388-16.031h1.075l-3.388,16.031H209.877z"/>
				<path fill="#FCFCFC" d="M224.543,251.943c-2.025,0-3.037-1.458-3.037-4.375c0-1.433,0.168-2.946,0.504-4.54
					c0.336-1.594,0.791-2.97,1.365-4.128c0.574-1.159,1.226-2.021,1.957-2.588s1.528-0.85,2.391-0.85c2.01,0,3.016,1.4,3.016,4.2
					c0,2.076-0.292,4.112-0.877,6.107c-0.585,1.996-1.341,3.523-2.27,4.583C226.664,251.413,225.647,251.943,224.543,251.943z
					 M222.581,247.589c0,2.215,0.684,3.323,2.051,3.323c0.672,0,1.307-0.294,1.902-0.883s1.124-1.429,1.584-2.522
					c0.461-1.093,0.833-2.371,1.119-3.833s0.428-2.8,0.428-4.013c0-2.113-0.684-3.169-2.051-3.169c-0.665,0-1.292,0.269-1.88,0.806
					c-0.588,0.538-1.117,1.343-1.584,2.418s-0.846,2.354-1.135,3.838C222.725,245.038,222.581,246.383,222.581,247.589z"/>
				<path fill="#FCFCFC" d="M245.152,251.723h-1.327l-2.204-14.375h-0.087c-0.103,0.841-0.267,1.798-0.494,2.873l-2.423,11.502
					h-1.075l3.389-16.031h1.436l2.105,14.211h0.077l0.154-0.943l0.384-2.062l2.379-11.207h1.075L245.152,251.723z"/>
				<path fill="#FCFCFC" d="M259.949,251.723v-5.812h-3.366l-2.423,5.812h-1.151l6.645-16.097h1.349v16.097H259.949z
					 M259.949,244.826v-4.057l0.066-3.893c-0.109,0.38-0.3,0.936-0.57,1.667s-1.096,2.826-2.478,6.283H259.949z"/>
				<path fill="#FCFCFC" d="M268.891,251.723l3.388-16.031h1.075l-3.169,15.001h3.937l-0.208,1.03H268.891z"/>
				<path fill="#FCFCFC" d="M282.186,251.723l3.389-16.031h1.074l-3.388,16.031H282.186z"/>
				<path fill="#FCFCFC" d="M295.524,251.723h-1.108l3.169-14.979h-2.808l0.23-1.053h6.711l-0.219,1.053h-2.807L295.524,251.723z"/>
				<path fill="#FCFCFC" d="M309.784,243.971l4.013-8.279h1.13l-4.902,9.771l-1.316,6.261h-1.107l1.327-6.261l-0.812-9.771h1.107
					L309.784,243.971z"/>
				<path fill="#FCFCFC" d="M319.746,251.142c0-0.446,0.103-0.82,0.307-1.124c0.205-0.303,0.479-0.455,0.822-0.455
					c0.198,0,0.351,0.077,0.461,0.23c0.109,0.153,0.164,0.354,0.164,0.603c0,0.446-0.1,0.808-0.301,1.085
					c-0.201,0.278-0.458,0.417-0.773,0.417c-0.183,0-0.342-0.064-0.477-0.192S319.746,251.391,319.746,251.142z"/>
				<path fill="#FCFCFC" d="M347.3,236.493c-0.95,0-1.848,0.471-2.692,1.415c-0.844,0.943-1.531,2.242-2.062,3.898
					c-0.53,1.656-0.795,3.255-0.795,4.797c0,1.491,0.188,2.586,0.565,3.284c0.376,0.698,1.007,1.047,1.891,1.047
					c0.556,0,1.185-0.143,1.886-0.428v1.042c-0.687,0.263-1.371,0.395-2.051,0.395c-1.118,0-1.959-0.422-2.522-1.267
					c-0.562-0.844-0.844-2.137-0.844-3.876c0-1.871,0.312-3.715,0.938-5.532c0.625-1.817,1.451-3.242,2.479-4.277
					c1.027-1.034,2.136-1.551,3.328-1.551c0.892,0,1.608,0.227,2.149,0.68l-0.669,0.943
					C348.462,236.683,347.929,236.493,347.3,236.493z"/>
				<path fill="#FCFCFC" d="M356.734,244.716l-1.48,7.007h-1.074l3.389-16.031h1.974c1.023,0,1.829,0.3,2.418,0.899
					c0.589,0.599,0.882,1.429,0.882,2.489c0,0.877-0.141,1.71-0.422,2.5s-0.682,1.444-1.2,1.963
					c-0.519,0.519-1.108,0.844-1.766,0.976l1.327,7.204h-1.174l-1.283-7.007H356.734z M356.932,243.729h1.152
					c1.146,0,2.041-0.396,2.681-1.189c0.64-0.793,0.96-1.917,0.96-3.372c0-0.782-0.215-1.381-0.643-1.798
					c-0.428-0.417-1.032-0.625-1.814-0.625h-0.844L356.932,243.729z"/>
				<path fill="#FCFCFC" d="M374.416,251.723h-5.23l3.389-16.031h5.23l-0.23,1.053h-4.123l-1.283,6.064h3.883l-0.22,1.031h-3.894
					l-1.457,6.854h4.133L374.416,251.723z"/>
				<path fill="#FCFCFC" d="M388.61,251.723v-5.812h-3.366l-2.424,5.812h-1.151l6.646-16.097h1.348v16.097H388.61z M388.61,244.826
					v-4.057l0.065-3.893c-0.109,0.38-0.3,0.936-0.57,1.667s-1.096,2.826-2.479,6.283H388.61z"/>
				<path fill="#FCFCFC" d="M400.019,251.723h-1.107l3.169-14.979h-2.807l0.23-1.053h6.71l-0.22,1.053h-2.807L400.019,251.723z"/>
				<path fill="#FCFCFC" d="M410.848,251.723l3.388-16.031h1.075l-3.389,16.031H410.848z"/>
				<path fill="#FCFCFC" d="M430.315,235.692h1.096l-6.688,16.031h-1.195v-16.031h1.086v9.968c0,1.221-0.085,2.8-0.252,4.737
					c0.248-0.768,0.705-1.988,1.37-3.663L430.315,235.692z"/>
				<path fill="#FCFCFC" d="M435.999,251.723l3.389-16.031h1.074l-3.388,16.031H435.999z"/>
				<path fill="#FCFCFC" d="M449.338,251.723h-1.107l3.169-14.979h-2.807l0.23-1.053h6.711l-0.22,1.053h-2.808L449.338,251.723z"/>
				<path fill="#FCFCFC" d="M463.599,243.971l4.014-8.279h1.129l-4.901,9.771l-1.315,6.261h-1.107l1.326-6.261l-0.812-9.771h1.108
					L463.599,243.971z"/>
				<path fill="#FCFCFC" d="M473.56,251.142c0-0.446,0.103-0.82,0.307-1.124c0.205-0.303,0.479-0.455,0.822-0.455
					c0.198,0,0.352,0.077,0.461,0.23s0.164,0.354,0.164,0.603c0,0.446-0.1,0.808-0.301,1.085c-0.201,0.278-0.459,0.417-0.773,0.417
					c-0.183,0-0.342-0.064-0.477-0.192S473.56,251.391,473.56,251.142z"/>
				<path fill="#FCFCFC" d="M503.022,240.243c0,2.193-0.301,4.183-0.904,5.971c-0.604,1.787-1.443,3.152-2.521,4.096
					c-1.079,0.943-2.338,1.414-3.778,1.414h-2.083l3.389-16.031h2.379c1.125,0,1.994,0.384,2.604,1.151
					C502.718,237.611,503.022,238.744,503.022,240.243z M496.038,250.693c1.104,0,2.092-0.424,2.966-1.272
					c0.874-0.848,1.571-2.109,2.095-3.783c0.522-1.674,0.783-3.473,0.783-5.395c0-2.332-0.844-3.498-2.533-3.498h-1.348
					l-2.973,13.948H496.038z"/>
				<path fill="#FCFCFC" d="M515.067,251.723h-5.23l3.389-16.031h5.23l-0.23,1.053h-4.123l-1.283,6.064h3.882l-0.22,1.031h-3.893
					l-1.458,6.854h4.134L515.067,251.723z"/>
				<path fill="#FCFCFC" d="M530.357,247.348c0,1.433-0.38,2.557-1.14,3.372c-0.761,0.815-1.811,1.223-3.147,1.223
					c-0.577,0-1.118-0.062-1.623-0.187c-0.505-0.125-0.892-0.271-1.163-0.438v-1.185c0.885,0.519,1.843,0.779,2.873,0.779
					c0.973,0,1.729-0.316,2.271-0.949s0.812-1.497,0.812-2.593c0-0.468-0.059-0.888-0.176-1.261
					c-0.117-0.373-0.277-0.722-0.482-1.047s-0.606-0.806-1.206-1.442c-0.57-0.607-0.965-1.082-1.185-1.426
					c-0.219-0.343-0.387-0.707-0.504-1.091s-0.176-0.81-0.176-1.277c0-0.833,0.178-1.588,0.531-2.265
					c0.355-0.676,0.853-1.195,1.492-1.557s1.387-0.542,2.242-0.542c0.475,0,0.973,0.065,1.491,0.197
					c0.519,0.131,0.907,0.285,1.163,0.46l-0.582,1.031c-0.665-0.417-1.393-0.625-2.182-0.625c-0.614,0-1.15,0.135-1.606,0.406
					c-0.457,0.271-0.81,0.647-1.059,1.129s-0.372,1.016-0.372,1.601c0,0.548,0.109,1.053,0.328,1.513
					c0.22,0.46,0.644,1.005,1.272,1.634c0.673,0.687,1.126,1.225,1.359,1.612c0.233,0.388,0.421,0.817,0.56,1.289
					C530.288,246.18,530.357,246.727,530.357,247.348z"/>
				<path fill="#FCFCFC" d="M538.158,251.723l3.389-16.031h1.074l-3.388,16.031H538.158z"/>
				<path fill="#FCFCFC" d="M555.38,243.598h3.234l-1.666,7.763c-1.002,0.388-2.055,0.582-3.158,0.582
					c-2.669,0-4.003-1.674-4.003-5.022c0-1.345,0.187-2.767,0.56-4.266c0.373-1.499,0.879-2.803,1.519-3.915
					c0.64-1.111,1.367-1.939,2.183-2.483c0.814-0.545,1.693-0.817,2.637-0.817c1.242,0,2.343,0.343,3.301,1.031l-0.702,0.965
					c-0.497-0.366-0.952-0.614-1.365-0.746c-0.413-0.132-0.847-0.197-1.3-0.197c-0.811,0-1.559,0.263-2.242,0.79
					c-0.684,0.526-1.286,1.288-1.809,2.286c-0.523,0.998-0.938,2.171-1.245,3.52c-0.307,1.349-0.46,2.648-0.46,3.898
					c0,1.396,0.25,2.403,0.75,3.021c0.502,0.618,1.264,0.927,2.287,0.927c0.73,0,1.433-0.103,2.105-0.307l1.283-5.998h-2.128
					L555.38,243.598z"/>
				<path fill="#FCFCFC" d="M573.53,251.723h-1.326L570,237.348h-0.088c-0.103,0.841-0.267,1.798-0.493,2.873l-2.422,11.502h-1.075
					l3.388-16.031h1.436l2.105,14.211h0.077l0.153-0.943l0.384-2.062l2.38-11.207h1.074L573.53,251.723z"/>
				<path fill="#FCFCFC" d="M583.317,251.142c0-0.446,0.103-0.82,0.307-1.124c0.205-0.303,0.479-0.455,0.822-0.455
					c0.198,0,0.352,0.077,0.461,0.23s0.164,0.354,0.164,0.603c0,0.446-0.1,0.808-0.301,1.085c-0.201,0.278-0.459,0.417-0.773,0.417
					c-0.183,0-0.342-0.064-0.477-0.192S583.317,251.391,583.317,251.142z"/>
			</g>
			<g>
				<g>
					<path fill="#FCFCFC" d="M208.732,89.732h2.695v87.987c0,2.606,0.809,4.671,2.425,6.198c1.617,1.528,3.773,2.291,6.468,2.291
						c0.988,0,2.177-0.111,3.571-0.337c1.392-0.223,2.672-0.517,3.84-0.875l0.944,2.155c-1.259,0.451-2.809,0.832-4.649,1.145
						c-1.842,0.313-3.391,0.472-4.648,0.472c-3.145,0-5.706-1.011-7.68-3.031c-1.977-2.021-2.964-4.693-2.964-8.018V89.732z"/>
					<path fill="#FCFCFC" d="M239.991,100.107V89.732h2.694v10.375H239.991z M239.991,188.094v-69.932h2.694v69.932H239.991z"/>
					<path fill="#FCFCFC" d="M292.539,184.86c-1.347,0.899-2.583,1.573-3.706,2.021c-1.124,0.451-2.448,0.875-3.975,1.28
						c-1.528,0.404-3.234,0.606-5.12,0.606c-3.234,0-6.063-0.987-8.489-2.964c-2.425-1.975-3.638-4.581-3.638-7.814v-57.131h-10.105
						v-2.695h10.105V93.774h2.695v24.388h16.843v2.695h-16.843v57.131c0.179,2.606,1.212,4.604,3.1,5.996
						c1.886,1.394,3.996,2.088,6.333,2.088c1.526,0,2.964-0.155,4.312-0.471c1.347-0.313,2.537-0.674,3.57-1.079
						c1.031-0.404,1.84-0.785,2.425-1.145c0.584-0.358,0.92-0.583,1.011-0.673L292.539,184.86z"/>
					<path fill="#FCFCFC" d="M331.886,189.442c-4.582,0-8.916-0.967-13.003-2.897c-4.088-1.931-7.659-4.581-10.711-7.95
						c-3.055-3.368-5.481-7.275-7.276-11.722c-1.798-4.446-2.695-9.184-2.695-14.216c0-4.939,0.853-9.566,2.561-13.878
						c1.705-4.311,4.062-8.084,7.073-11.318c3.008-3.234,6.512-5.771,10.51-7.613c3.996-1.84,8.287-2.763,12.868-2.763
						c4.669,0,9.048,0.943,13.137,2.829c4.086,1.887,7.634,4.447,10.645,7.681c3.008,3.234,5.41,7.053,7.208,11.453
						c1.796,4.403,2.695,9.119,2.695,14.148v1.482h-64.003c0.358,4.493,1.415,8.691,3.166,12.598
						c1.752,3.907,4.02,7.299,6.805,10.173c2.783,2.875,5.996,5.144,9.634,6.805c3.638,1.663,7.479,2.492,11.52,2.492
						c2.696,0,5.323-0.357,7.883-1.077c2.56-0.718,4.962-1.729,7.209-3.032c2.244-1.301,4.221-2.851,5.928-4.648
						c1.705-1.797,3.053-3.773,4.042-5.929l2.56,0.673c-0.988,2.425-2.403,4.648-4.244,6.67c-1.842,2.021-3.998,3.773-6.467,5.255
						c-2.472,1.482-5.167,2.651-8.084,3.503C337.926,189.014,334.939,189.442,331.886,189.442z M362.068,151.983
						c-0.27-4.669-1.26-8.981-2.965-12.936c-1.707-3.952-3.93-7.343-6.669-10.173c-2.741-2.829-5.908-5.053-9.5-6.67
						c-3.594-1.617-7.456-2.425-11.587-2.425c-4.133,0-7.996,0.809-11.588,2.425c-3.594,1.617-6.76,3.863-9.5,6.737
						c-2.741,2.875-4.918,6.289-6.534,10.24c-1.618,3.954-2.561,8.22-2.83,12.801H362.068z"/>
					<path fill="#FCFCFC" d="M456.252,163.437c0,3.593-0.72,6.895-2.155,9.904c-1.439,3.01-3.369,5.614-5.795,7.814
						c-2.425,2.202-5.255,3.907-8.488,5.12c-3.233,1.212-6.693,1.819-10.375,1.819H384.3V92.427h46.082
						c3.321,0,6.332,0.72,9.027,2.157c2.694,1.437,4.985,3.3,6.871,5.591c1.887,2.291,3.346,4.897,4.38,7.814
						c1.032,2.92,1.549,5.862,1.549,8.826c0,4.851-1.212,9.276-3.638,13.272c-2.425,3.998-5.794,6.986-10.105,8.96
						c5.479,1.617,9.813,4.627,13.002,9.028C454.656,152.478,456.252,157.599,456.252,163.437z M393.732,100.646v35.303h32.876
						c2.335,0,4.515-0.494,6.535-1.482c2.021-0.988,3.75-2.291,5.188-3.908c1.436-1.617,2.561-3.48,3.369-5.592
						c0.809-2.11,1.213-4.333,1.213-6.669c0-2.425-0.384-4.716-1.146-6.872c-0.765-2.157-1.843-4.02-3.233-5.592
						c-1.395-1.571-3.033-2.829-4.92-3.773c-1.886-0.943-3.953-1.415-6.197-1.415H393.732z M446.819,161.819
						c0-2.335-0.403-4.602-1.213-6.804c-0.809-2.2-1.953-4.131-3.436-5.794c-1.482-1.662-3.233-3.008-5.255-4.043
						c-2.021-1.031-4.2-1.549-6.534-1.549h-36.649v36.245h35.706c2.426,0,4.692-0.492,6.805-1.482
						c2.108-0.987,3.951-2.312,5.524-3.975c1.569-1.661,2.806-3.591,3.705-5.793C446.369,166.424,446.819,164.157,446.819,161.819z"
						/>
					<path fill="#FCFCFC" d="M472.823,209.653c0.719,0.089,1.414,0.155,2.088,0.202c0.674,0.045,1.325,0.067,1.955,0.067
						c1.616,0,2.896-0.226,3.84-0.673c0.942-0.451,1.863-1.438,2.762-2.964c0.896-1.529,1.907-3.729,3.031-6.603
						c1.123-2.875,2.717-6.737,4.783-11.587l-30.586-70.201h9.432l26.006,61.712l24.118-61.712h8.759L492.63,208.44
						c-0.989,2.604-2.627,4.871-4.918,6.804c-2.291,1.931-5.413,2.898-9.364,2.898c-0.899,0-1.751-0.024-2.56-0.068
						c-0.809-0.046-1.799-0.158-2.965-0.337V209.653z"/>
					<path fill="#FCFCFC" d="M575.495,184.726c-0.539,0.27-1.326,0.628-2.357,1.077c-1.034,0.451-2.223,0.899-3.57,1.348
						c-1.348,0.451-2.876,0.854-4.581,1.213c-1.708,0.358-3.503,0.539-5.391,0.539c-1.977,0-3.862-0.27-5.659-0.809
						s-3.368-1.369-4.716-2.493c-1.347-1.123-2.425-2.537-3.233-4.245c-0.809-1.705-1.213-3.682-1.213-5.929v-50.259h-9.701v-7.276
						h9.701V94.179h9.162v23.714h16.17v7.276h-16.17v47.698c0.18,2.607,1.1,4.514,2.763,5.727c1.661,1.213,3.571,1.819,5.727,1.819
						c2.604,0,4.896-0.425,6.872-1.28c1.975-0.853,3.233-1.458,3.772-1.819L575.495,184.726z"/>
					<path fill="#FCFCFC" d="M615.516,189.442c-5.121,0-9.815-0.967-14.081-2.897c-4.268-1.931-7.973-4.581-11.115-7.95
						c-3.146-3.368-5.593-7.252-7.345-11.655c-1.751-4.399-2.627-9.116-2.627-14.147c0-4.94,0.876-9.588,2.627-13.946
						c1.752-4.356,4.177-8.173,7.276-11.453c3.099-3.278,6.805-5.882,11.116-7.814c4.312-1.931,8.981-2.898,14.013-2.898
						c5.121,0,9.813,0.967,14.08,2.898c4.266,1.933,7.928,4.56,10.983,7.882c3.052,3.324,5.432,7.141,7.142,11.453
						c1.703,4.311,2.559,8.893,2.559,13.743c0,0.72,0,1.438,0,2.156c0,0.72-0.047,1.212-0.135,1.482h-60.095
						c0.27,3.773,1.146,7.255,2.628,10.443c1.482,3.19,3.389,5.952,5.726,8.287c2.336,2.336,5.007,4.156,8.018,5.457
						c3.009,1.303,6.22,1.954,9.634,1.954c2.244,0,4.492-0.313,6.738-0.943c2.244-0.628,4.312-1.482,6.197-2.561
						c1.887-1.078,3.592-2.402,5.119-3.975c1.527-1.571,2.697-3.301,3.506-5.188l7.949,2.156c-1.078,2.607-2.605,4.964-4.583,7.075
						c-1.974,2.111-4.266,3.954-6.872,5.523c-2.605,1.574-5.479,2.786-8.622,3.639C622.206,189.014,618.929,189.442,615.516,189.442
						z M641.386,149.289c-0.27-3.773-1.146-7.209-2.627-10.308c-1.484-3.099-3.371-5.771-5.66-8.017
						c-2.29-2.245-4.941-3.996-7.949-5.255c-3.011-1.257-6.221-1.887-9.634-1.887c-3.415,0-6.649,0.629-9.702,1.887
						c-3.055,1.259-5.727,3.011-8.018,5.255c-2.289,2.246-4.132,4.94-5.523,8.084c-1.395,3.145-2.223,6.558-2.492,10.241H641.386z"
						/>
				</g>
				<g>
					<path fill="#FCFCFC" d="M133.353,147.612c2.478,0,4.503,2.025,4.503,4.5v11.836c0,2.475-2.025,4.5-4.503,4.5H96.911
						c-2.474,0-4.499,2.025-4.499,4.5v10.647c0,2.475,2.025,4.5,4.499,4.5h56.088c2.475,0,4.503-2.025,4.503-4.5v-51.327
						c0-2.475-2.029-4.5-4.503-4.5h-33.664c-2.475,0-4.5-2.025-4.5-4.5V57.852c0-2.476-2.025-4.5-4.5-4.5H96.911
						c-2.474,0-4.499,2.025-4.499,4.5v85.259c0,2.476,2.025,4.5,4.499,4.5H133.353z"/>
					<path fill="#FCFCFC" d="M83.877,89.667c0-2.401-2.025-4.365-4.499-4.365h-9.851c-2.475,0-4.5,1.964-4.5,4.365
						c0,2.401,2.025,4.366,4.5,4.366h9.851C81.852,94.032,83.877,92.068,83.877,89.667"/>
					<path fill="#FCFCFC" d="M83.877,75.776c0-2.401-2.025-4.366-4.499-4.366H54.644c-2.475,0-4.5,1.965-4.5,4.366
						s2.025,4.365,4.5,4.365h24.734C81.852,80.141,83.877,78.177,83.877,75.776"/>
					<path fill="#FCFCFC" d="M83.877,115.464c0-2.402-2.025-4.366-4.499-4.366h-9.851c-2.475,0-4.5,1.964-4.5,4.366
						c0,2.401,2.025,4.366,4.5,4.366h9.851C81.852,119.83,83.877,117.866,83.877,115.464"/>
					<path fill="#FCFCFC" d="M83.877,102.367c0-2.401-2.025-4.366-4.499-4.366H54.644c-2.475,0-4.5,1.964-4.5,4.366
						c0,2.402,2.025,4.366,4.5,4.366h24.734C81.852,106.733,83.877,104.769,83.877,102.367"/>
				</g>
			</g>
		</g>
	</g>
</switch>
</svg>
